<svg width="19" height="18" viewBox="0 0 19 18" fill="none" xmlns="http://www.w3.org/2000/svg">
<path d="M15.9508 9.00029C15.9508 12.5625 13.063 15.4503 9.50078 15.4503C5.93854 15.4503 3.05078 12.5625 3.05078 9.00029C3.05078 5.43806 5.93854 2.55029 9.50078 2.55029C13.063 2.55029 15.9508 5.43806 15.9508 9.00029ZM9.51604 5.82741C9.00972 5.48987 8.35873 5.4584 7.82222 5.74553C7.28571 6.03266 6.95078 6.59178 6.95078 7.20029V10.8003C6.95078 11.4088 7.28571 11.9679 7.82222 12.2551C8.35872 12.5422 9.00972 12.5107 9.51604 12.1732L12.216 10.3732C12.6751 10.0672 12.9508 9.55198 12.9508 9.0003C12.9508 8.44861 12.6751 7.93343 12.216 7.62741L9.51604 5.82741Z" fill="#12141D" stroke="#12141D" stroke-width="1.5"/>
</svg>
