<svg width="50" height="63" viewBox="0 0 50 63" fill="none" xmlns="http://www.w3.org/2000/svg">
<path d="M38.5684 27.1127C38.4698 27.2113 38.4698 27.2113 38.3712 27.3099C38.2726 27.4085 38.0754 27.6056 37.9769 27.7042C37.7797 27.8028 37.5825 28 37.3853 28.0986C37.1881 28.1972 37.0895 28.1972 36.8923 28.2958C35.8078 28.6901 34.6247 28.8873 33.5402 28.9859C33.0473 28.9859 32.6529 29.0845 32.16 29.0845C31.9628 29.0845 31.667 29.0845 31.4698 29.0845C31.3712 29.0845 31.2726 29.0845 31.174 29.0845C31.0754 29.0845 31.0754 29.0845 30.9769 29.0845C30.6811 29.0845 30.4839 29.2817 30.4839 29.5775C30.4839 29.8732 30.6811 30.0704 30.9769 30.0704H31.0754C31.8642 30.2676 32.5543 30.2676 33.3431 30.169C34.2304 30.0704 35.0191 29.9718 35.9064 29.7746C36.6952 29.5775 37.3853 29.3803 38.0754 29.0845C38.2726 28.9859 38.5684 28.7887 38.7656 28.6901C38.9628 28.493 39.16 28.3944 39.3571 28.1972C39.5543 28 39.6529 27.8028 39.7515 27.6056C39.8501 27.4085 39.9487 27.3099 40.0473 27.1127C40.1459 26.9155 40.2445 26.8169 40.2445 26.6197C40.3431 26.3239 40.4416 25.9296 40.5402 25.6338C40.6388 25.338 40.4416 25.0423 40.2445 24.9437H40.1459C39.9487 24.9437 39.7515 25.0423 39.6529 25.338C39.5543 25.7324 39.3571 26.2254 39.16 26.6197C38.8642 26.6197 38.7656 26.9155 38.5684 27.1127ZM0.512066 10.8451C0.807841 10.8451 1.00502 10.6479 1.00502 10.3521C1.00502 9.56338 1.00502 8.67606 1.00502 7.88732C1.00502 7.49296 1.10362 7.09859 1.10362 6.80282C1.10362 6.40845 1.20221 6.11268 1.20221 5.71831C1.3008 5.02817 1.49798 4.43662 1.69516 3.84507V3.74648C1.69516 3.74648 1.69516 3.74648 1.69516 3.84507C1.89235 3.64789 1.89235 3.5493 1.99094 3.4507C2.08953 3.35211 2.08953 3.35211 2.18812 3.25352C2.28671 3.15493 2.38531 3.15493 2.4839 3.05634C3.17404 2.76056 3.96277 2.56338 4.7515 2.3662C5.44164 2.16901 6.13178 1.97183 6.82193 1.77465C7.51207 1.57746 8.20221 1.38028 8.89235 1.1831C9.18812 1.08451 9.58249 0.985915 9.87826 0.887324C10.174 0.788732 10.3712 0.788732 10.667 0.690141C10.9628 0.591549 11.0614 0.394366 11.0614 0.0985916C10.8642 0.197183 10.667 0 10.4698 0H10.3712C10.2726 0 10.0754 0.0985916 9.97686 0.0985916C9.77967 0.197183 9.4839 0.197183 9.28671 0.295775C8.89235 0.394366 8.39939 0.492958 8.00502 0.591549C7.01911 0.887324 6.03319 1.08451 5.04728 1.38028C4.55432 1.47887 4.15995 1.57746 3.667 1.67606C3.46981 1.77465 3.27263 1.77465 3.07545 1.87324C2.77967 1.97183 2.4839 1.97183 2.18812 2.16901C2.08953 2.16901 1.99094 2.26761 1.89235 2.26761C1.69516 2.26761 1.59657 2.3662 1.49798 2.46479C1.39939 2.56338 1.3008 2.66197 1.20221 2.66197C1.10362 2.76056 1.00502 2.95775 1.00502 3.05634C0.906432 3.15493 0.807841 3.35211 0.709249 3.5493C0.709249 3.64789 0.610658 3.84507 0.610658 4.04225C0.512067 4.43662 0.413475 4.92958 0.314883 5.42253C0.0191087 7 0.0191085 8.67606 0.0191085 10.3521C0.0191085 10.6479 0.216292 10.8451 0.512066 10.8451ZM26.4416 63C26.3431 63 26.4416 63 26.4416 63C26.3431 63 26.3431 63 26.4416 63C26.4416 63 26.3431 63 26.4416 63ZM31.2726 60.2394C30.5825 60.6338 29.7938 60.9296 29.005 61.2253C28.6107 61.3239 28.2163 61.5211 27.7233 61.6197C27.2304 61.7183 26.7374 61.8169 26.2445 61.9155C25.7515 61.9155 25.2585 62.0141 24.667 62.0141C24.174 62.0141 23.6811 61.9155 23.1881 61.8169C22.6952 61.7183 22.2022 61.6197 21.7092 61.4225C21.3149 61.3239 20.9205 61.1268 20.5261 60.9296C20.1318 60.7324 19.7374 60.5352 19.3431 60.338C19.1459 60.2394 19.0473 60.1408 18.8501 60.0423C18.7515 59.9437 18.6529 59.9437 18.5543 59.8451C18.4557 59.8451 18.3571 59.7465 18.2585 59.7465H18.16C18.0614 59.7465 17.9628 59.8451 17.8642 59.9437C17.7656 60.1408 17.7656 60.4366 17.9628 60.6338C18.16 60.7324 18.2585 60.831 18.3571 60.9296C18.5543 61.0282 18.7515 61.2254 18.9487 61.3239C19.3431 61.6197 19.836 61.8169 20.2304 62.0141C21.2163 62.507 22.2022 62.7042 23.2867 62.9014C23.7797 63 24.174 63 24.667 63C24.9628 63 25.16 63 25.4557 63C25.7515 63 25.9487 63 26.2445 62.9014C26.2445 62.9014 26.2445 62.9014 26.3431 62.9014C27.2304 62.8028 28.0191 62.6056 28.8078 62.3099C29.7938 62.0141 30.7797 61.5211 31.667 61.0282C31.9628 60.9296 31.9628 60.5352 31.8642 60.338C31.8642 60.2394 31.5684 60.1408 31.2726 60.2394ZM15.3994 32.4366H15.3008H15.3994ZM21.2163 33.7183C21.3149 33.7183 21.4135 33.7183 21.5121 33.6197C22.1036 33.5211 22.6952 33.5211 23.2867 33.5211C23.9769 33.5211 24.5684 33.5211 25.2585 33.6197C25.8501 33.7183 26.3431 33.8169 26.9346 33.9155C27.5261 34.0141 28.0191 34.2113 28.6107 34.4085C29.3994 34.7042 30.0895 35.0986 30.7797 35.493C31.5684 35.8873 32.2585 36.3803 33.0473 36.6761C33.4416 36.8732 33.9346 37.0704 34.329 37.169C34.8219 37.3662 35.3149 37.3662 35.8078 37.4648C36.6952 37.5634 37.5825 37.4648 38.4698 37.3662C39.3571 37.2676 40.3431 37.2676 41.2304 37.169C42.1177 37.0704 43.005 37.0704 43.8923 37.0704C44.6811 37.0704 45.5684 37.0704 46.3571 37.0704C47.1459 37.0704 48.0332 37.0704 48.8219 37.0704C49.3149 37.0704 49.6107 36.6761 49.6107 36.2817C49.6107 35.7887 49.2163 35.493 48.8219 35.493C48.329 35.493 47.7374 35.493 47.2445 35.493C46.7515 35.493 46.2585 35.493 45.7656 35.493C44.6811 35.493 43.498 35.493 42.4135 35.5915C41.8219 35.5915 41.2304 35.6901 40.7374 35.6901C40.1459 35.6901 39.5543 35.7887 38.9628 35.8873C38.4698 35.9859 37.8783 35.9859 37.3853 36.0845C36.7938 36.0845 36.3008 36.0845 35.7093 36.0845C35.4135 35.9859 35.1177 35.9859 34.8219 35.8873C34.5261 35.7887 34.2304 35.6901 34.0332 35.5915C33.6388 35.3944 33.1459 35.1972 32.7515 34.9014C32.3571 34.7042 32.0614 34.507 31.667 34.3099C30.8783 33.9155 29.9909 33.4225 29.1036 33.1268C27.329 32.4366 25.4557 32.1408 23.6811 32.1408C23.5825 32.1408 23.4839 32.1408 23.4839 32.1408C22.5966 32.1408 21.7092 32.2394 20.8219 32.4366C20.5261 32.5352 20.2304 32.6338 19.9346 32.7324C19.4416 32.6338 18.9487 32.6338 18.5543 32.6338C18.3571 32.6338 18.16 32.6338 17.8642 32.6338C17.174 32.6338 16.4839 32.7324 15.8923 32.7324H15.9909C15.8923 32.7324 15.7938 32.7324 15.6952 32.7324H15.7938C15.6952 32.7324 15.6952 32.7324 15.5966 32.7324C14.0191 32.9296 12.5402 33.4225 11.0614 33.8169C9.58249 34.2113 8.00502 34.6056 6.52615 34.9014C5.63883 35 4.7515 35.0986 3.86418 35.0986C2.97685 35.0986 2.08953 35.0986 1.20221 35.1972C0.709249 35.1972 0.413474 35.5915 0.413474 35.9859C0.413474 36.3803 0.807841 36.8732 1.20221 36.7746C2.38531 36.6761 3.5684 36.6761 4.7515 36.6761C5.44164 36.6761 6.13178 36.5775 6.82193 36.4789C7.51207 36.3803 8.20221 36.2817 8.89235 36.0845C9.97686 35.7887 11.16 35.493 12.2445 35.1972C12.836 35 13.4276 34.8028 14.0191 34.7042C14.6107 34.507 15.3008 34.4085 15.8923 34.3099C16.3853 34.2113 16.7797 34.2113 17.2726 34.2113C16.9769 34.4085 16.6811 34.7042 16.3853 34.9014C16.0895 35.1972 15.7938 35.5915 15.498 35.8873C15.3008 36.1831 15.1036 36.5775 14.9064 36.8732C14.8078 37.169 14.7092 37.4648 14.7092 37.7606C14.7092 37.9577 14.6107 38.2535 14.7092 38.4507C14.7092 38.6479 14.7092 38.8451 14.8078 39.0423C14.8078 39.2394 14.9064 39.338 15.005 39.5352C15.1036 39.7324 15.2022 39.9296 15.3008 40.1268C15.3994 40.2254 15.498 40.4225 15.5966 40.5211C15.7938 40.7183 16.0895 40.9155 16.2867 41.0141C16.4839 41.1127 16.5825 41.2113 16.7797 41.2113C16.9769 41.3099 17.0754 41.3099 17.2726 41.4085C17.5684 41.507 17.9628 41.6056 18.2585 41.6056C18.9487 41.7042 19.6388 41.6056 20.329 41.507C21.6107 41.3099 22.9909 40.9155 24.2726 40.7183C24.7656 40.6197 25.16 40.6197 25.6529 40.6197C26.0473 40.6197 26.5402 40.6197 26.9346 40.7183C27.2304 40.8169 27.5261 40.8169 27.8219 40.9155C28.1177 41.0141 28.4135 41.1127 28.7092 41.2113C29.005 41.3099 29.3008 41.507 29.5966 41.6056C29.8923 41.8028 30.1881 42 30.5825 42.1972C31.9628 43.2817 33.2445 44.5634 34.4276 45.7465C35.1177 46.4366 35.8078 47.1268 36.3994 47.9155C36.9909 48.507 37.5825 49.1972 38.2726 49.7887C38.5684 49.9859 38.8642 50.1831 39.16 50.4789C39.0614 50.4789 38.9628 50.5775 38.8642 50.6761C38.7656 50.7747 38.7656 50.8732 38.667 50.9718C38.3712 51.2676 38.0754 51.4648 37.8783 51.7606C37.5825 52.0563 37.3853 52.3521 37.0895 52.5493C36.498 53.1408 35.9064 53.6338 35.3149 54.1268C33.9346 55.2113 32.4557 56.0986 30.7797 56.8873C30.3853 57.0845 29.9909 57.1831 29.5966 57.3803C29.3008 57.4789 29.005 57.5775 28.7092 57.5775C28.7092 57.2817 28.8078 57.0845 28.8078 56.7887C28.8078 56.5915 28.8078 56.3944 28.8078 56.1972C28.8078 56 28.7092 55.8028 28.6107 55.6056C28.5121 55.4085 28.4135 55.3099 28.2163 55.2113C28.0191 55.1127 27.9205 55.0141 27.7233 54.9155C27.5261 54.8169 27.329 54.8169 27.0332 54.8169C26.7374 54.8169 26.4416 54.9155 26.1459 55.0141C25.4557 55.2113 24.8642 55.507 24.174 55.8028C24.2726 55.8028 24.2726 55.7042 24.3712 55.7042C24.2726 55.8028 24.0754 55.8028 23.9769 55.9014C24.174 55.2113 24.3712 54.5211 24.174 53.9296C24.0754 53.7324 23.9769 53.4366 23.7797 53.338C23.5825 53.1408 23.3853 53.0423 23.0895 52.9437C22.7938 52.8451 22.498 52.8451 22.3008 52.9437C22.1036 52.9437 22.005 53.0423 21.9064 53.0423C21.5121 53.1408 21.1177 53.338 20.8219 53.5352C20.9205 53.338 20.9205 53.2394 21.0191 53.0423C21.1177 52.6479 21.2163 52.1549 21.2163 51.7606C21.2163 51.2676 21.1177 50.7746 20.8219 50.3803C20.7233 50.2817 20.6247 50.1831 20.5261 50.0845C20.329 49.9859 20.2304 49.8873 20.0332 49.7887C19.7374 49.6901 19.3431 49.6901 18.9487 49.6901C18.7515 49.6901 18.5543 49.7887 18.3571 49.8873C18.0614 49.9859 17.8642 50.0845 17.5684 50.1831C17.3712 50.2817 17.174 50.3803 16.9769 50.4789C16.9769 50.2817 16.9769 50.1831 16.9769 49.9859C16.9769 49.6901 16.9769 49.493 16.8783 49.1972C16.8783 49 16.7797 48.8028 16.7797 48.6056C16.5825 48.0141 16.2867 47.5211 15.7938 47.1268C15.6952 47.0282 15.498 46.9296 15.3008 46.831C15.1036 46.7324 14.9064 46.7324 14.6107 46.7324C14.6107 46.7324 14.6107 46.7324 14.5121 46.7324C14.3149 46.7324 14.2163 46.7324 14.0191 46.831C13.9205 46.831 13.8219 46.9296 13.6247 46.9296C13.5261 46.9296 13.329 47.0282 13.2304 47.1268C13.1318 47.2253 12.9346 47.3239 12.836 47.4225C12.7374 47.5211 12.5402 47.6197 12.4416 47.7183C12.2445 47.8169 12.1459 48.0141 11.9487 48.2113C11.7515 48.4085 11.6529 48.6056 11.5543 48.8028C11.4557 48.9014 11.4557 49 11.3571 49.1972C10.8642 48.9014 10.2726 48.6056 9.77967 48.3099C8.39939 47.7183 6.82193 47.3239 5.24446 47.1268C4.85009 47.1268 4.45573 47.0282 3.96277 47.0282C3.667 47.0282 3.37122 47.0282 3.07545 47.0282C2.28671 47.0282 1.39939 47.2253 0.610658 47.4225C0.216292 47.5211 -0.0794831 48.0141 0.0191085 48.4084C0.1177 48.6056 0.216291 48.8028 0.413474 48.9014C0.610657 49 0.807841 49 1.00502 49C1.59657 48.9014 2.18812 48.7042 2.77967 48.7042C3.86418 48.6056 4.85009 48.7042 5.9346 48.8028C6.52615 48.9014 7.1177 49 7.70925 49.1972C8.3008 49.3944 8.89235 49.5915 9.4839 49.7887C10.7656 50.3803 11.8501 51.0704 13.0332 51.8592C14.0191 52.5493 15.005 53.2394 15.9909 54.0282L15.8923 53.9296C16.5825 54.5211 17.3712 55.1127 18.16 55.6056C18.9487 56.1972 19.6388 56.6901 20.4276 57.1831C21.2163 57.6761 22.1036 58.0704 22.9909 58.4648C23.7797 58.7606 24.5684 59.0563 25.4557 59.1549C25.8501 59.2535 26.2445 59.2535 26.7374 59.2535C27.1318 59.2535 27.6247 59.2535 28.0191 59.2535C29.005 59.1549 29.8923 58.8592 30.6811 58.5634C32.4557 57.8732 34.0332 56.7887 35.6107 55.7042C36.3994 55.1127 37.1881 54.4225 37.8783 53.6338C38.2726 53.2394 38.5684 52.8451 38.8642 52.3521C38.9628 52.1549 39.16 51.9577 39.16 51.7606C39.2585 51.662 39.2585 51.5634 39.3571 51.4648C39.4557 51.3662 39.4557 51.2676 39.5543 51.2676C39.6529 51.169 39.6529 51.0704 39.5543 50.9718C39.8501 51.169 40.1459 51.3662 40.5402 51.4648C41.1318 51.7606 41.8219 51.8592 42.4135 51.8592C42.9064 51.8592 43.3008 51.8592 43.7938 51.7606C44.2867 51.7606 44.6811 51.662 45.174 51.5634C45.5684 51.4648 46.0614 51.4648 46.4557 51.3662C46.8501 51.2676 47.3431 51.169 47.7374 51.0704C48.1318 50.9718 48.5261 50.8732 48.8219 50.6761C48.9205 50.6761 48.9205 50.6761 49.0191 50.6761C49.3149 50.6761 49.5121 50.4789 49.5121 50.1831C49.5121 49.8873 49.3149 49.6901 49.0191 49.6901C48.9205 49.6901 48.8219 49.6901 48.6247 49.7887C48.1318 49.7887 47.6388 49.7887 47.0473 49.7887C46.4557 49.8873 45.8642 49.8873 45.3712 49.9859C44.2867 50.0845 43.1036 50.2817 41.9205 50.1831C41.7233 50.1831 41.5262 50.0845 41.329 50.0845C41.1318 49.9859 41.0332 49.9859 40.836 49.8873C40.5402 49.7887 40.2445 49.5915 39.9487 49.3944C39.7515 49.2958 39.5543 49.0986 39.3571 49C38.667 48.507 38.0754 47.9155 37.4839 47.3239C36.7938 46.6338 36.1036 45.8451 35.3149 45.1549C33.9346 43.7746 32.6529 42.2958 31.0754 41.1127C30.6811 40.8169 30.2867 40.5211 29.8923 40.3239C29.3994 40.0282 28.9064 39.831 28.4135 39.6338C27.9205 39.4366 27.5262 39.4366 27.0332 39.338C26.4416 39.2394 25.9487 39.2394 25.3571 39.2394C24.3712 39.2394 23.2867 39.4366 22.3008 39.5352C21.4135 39.7324 20.5261 39.9296 19.6388 40.0282C19.0473 40.1268 18.5543 40.1268 17.9628 40.0282C17.7656 40.0282 17.667 39.9296 17.4698 39.9296C17.2726 39.9296 17.0754 39.831 16.9769 39.7324C16.7797 39.6338 16.6811 39.5352 16.4839 39.4366C16.3853 39.338 16.2867 39.2394 16.1881 39.1408C16.0895 39.0423 15.9909 38.8451 15.9909 38.7465C15.8923 38.6479 15.8923 38.4507 15.8923 38.3521C15.8923 38.1549 15.8923 38.0563 15.8923 37.8592C15.8923 37.662 15.9909 37.5634 15.9909 37.3662C16.0895 37.0704 16.2867 36.7746 16.4839 36.4789C16.6811 36.2817 16.7797 36.0845 16.9769 35.9859C17.174 35.7887 17.2726 35.6901 17.4698 35.493C17.7656 35.1972 18.16 35 18.5543 34.7042C18.9487 34.507 19.2445 34.3099 19.6388 34.1127C19.9346 34.0141 20.2304 33.9155 20.6247 33.8169C20.7233 33.8169 20.9205 33.7183 21.0191 33.7183C21.1177 33.7183 21.1177 33.7183 21.2163 33.7183ZM22.2022 54.3239H22.1036C22.1036 54.2253 22.1036 54.2253 22.2022 54.3239ZM17.8642 51.2676C18.16 51.169 18.4557 51.0704 18.7515 51.0704H18.8501C18.8501 51.0704 18.8501 51.0704 18.8501 51.169C18.8501 51.2676 18.9487 51.3662 18.9487 51.4648C18.9487 51.662 18.9487 51.7606 18.9487 51.9577C18.9487 52.1549 18.8501 52.3521 18.7515 52.6479C18.5543 53.0423 18.4557 53.338 18.16 53.6338C18.16 53.7324 18.0614 53.7324 18.0614 53.831C17.8642 53.7324 17.667 53.5352 17.4698 53.4366C16.9769 53.1408 16.5825 52.7465 16.0895 52.4507C16.7797 51.9577 17.2726 51.5634 17.8642 51.2676ZM12.1459 49.493C12.4416 49.2958 12.7374 49 13.0332 48.8028C13.329 48.6056 13.6247 48.4085 13.9205 48.3099C14.0191 48.3099 14.1177 48.2113 14.2163 48.2113H14.3149H14.4135C14.4135 48.2113 14.5121 48.2113 14.5121 48.3099C14.6107 48.4085 14.6107 48.4085 14.7092 48.507C14.8078 48.6056 14.8078 48.7042 14.9064 48.8028C15.005 49 15.005 49.1972 15.1036 49.3944C15.1036 49.6901 15.1036 49.8873 15.1036 50.1831C15.1036 50.4789 15.005 50.6761 14.9064 50.9718C14.9064 51.0704 14.8078 51.169 14.7092 51.2676C14.5121 51.0704 14.2163 50.8732 14.0191 50.6761C13.329 50.1831 12.7374 49.7887 12.1459 49.493ZM20.1318 55.2113C20.0332 55.2113 20.0332 55.1127 19.9346 55.0141C20.1318 54.9155 20.2304 54.8169 20.4276 54.8169C21.0191 54.6197 21.5121 54.4225 22.1036 54.2254H22.2022C22.2022 54.3239 22.2022 54.3239 22.2022 54.4225C22.1036 54.7183 22.005 55.0141 21.9064 55.3099C21.8078 55.507 21.7092 55.8028 21.6107 56C21.1177 55.8028 20.6247 55.507 20.1318 55.2113ZM25.6529 57.4789C25.5543 57.4789 25.6529 57.4789 25.6529 57.4789C25.5543 57.4789 25.4557 57.4789 25.4557 57.4789C25.4557 57.4789 25.4557 57.4789 25.6529 57.4789C25.16 57.3803 24.7656 57.2817 24.2726 57.1831C24.174 57.1831 24.0754 57.0845 23.9769 57.0845C24.2726 56.9859 24.4698 56.8873 24.7656 56.7887C25.3571 56.5915 25.9487 56.3944 26.5402 56.2958H26.4416H26.5402H26.6388H26.5402C26.6388 56.2958 26.6388 56.2958 26.7374 56.2958C26.7374 56.5915 26.7374 56.8873 26.7374 57.1831C26.7374 57.2817 26.7374 57.3803 26.7374 57.4789C26.7374 57.5775 26.7374 57.5775 26.7374 57.6761C26.2445 57.5775 25.9487 57.5775 25.6529 57.4789C25.6529 57.4789 25.5543 57.4789 25.6529 57.4789ZM26.5402 56.2958C26.4416 56.2958 26.5402 56.2958 26.5402 56.2958V56.2958ZM9.4839 5.71831C8.69516 5.71831 7.80784 5.71831 7.1177 6.21127C6.42756 6.70423 6.13178 7.59155 5.83601 8.28169C5.73742 8.77465 5.63883 9.26761 5.54024 9.66197C5.24446 11.5352 5.04728 13.3099 4.94869 15.1831C4.85009 16.5634 4.85009 17.9437 4.7515 19.3239C4.7515 20.0141 4.65291 20.7042 4.65291 21.3944C4.65291 21.9859 4.65291 22.6761 4.65291 23.2676C4.65291 23.5634 4.65291 23.8592 4.7515 24.1549C4.7515 24.2535 4.85009 24.3521 4.85009 24.4507C4.85009 24.5493 4.94869 24.5493 4.94869 24.6479C5.04728 24.7465 5.14587 24.7465 5.24446 24.8451C5.54024 25.0423 5.83601 25.0423 6.13178 25.0423C6.52615 25.0423 6.82193 24.9437 7.21629 24.9437C7.61066 24.8451 7.90643 24.8451 8.3008 24.7465C8.99094 24.6479 9.58249 24.4507 10.2726 24.2535C10.8642 24.0563 11.4557 23.9577 12.1459 23.8592H12.0473C12.1459 23.8592 12.2445 23.8592 12.3431 23.8592C12.3431 23.8592 12.3431 23.8592 12.2445 23.8592H12.3431H12.4416C12.2445 24.1549 12.0473 24.5493 11.9487 24.8451C11.7515 25.2394 11.6529 25.6338 11.4557 25.9296C11.0614 26.7183 10.7656 27.507 10.4698 28.2958C10.3712 28.6901 10.174 28.9859 10.0754 29.3803C9.97686 29.7746 9.77967 30.0704 9.68108 30.4648C9.58249 30.7606 9.68108 31.1549 9.87826 31.4507C9.97686 31.6479 10.0754 31.7465 10.2726 31.8451C10.3712 31.8451 10.3712 31.9437 10.4698 31.9437C10.5684 31.9437 10.7656 31.9437 10.8642 31.9437C10.9628 31.9437 10.9628 31.9437 11.0614 31.9437C11.2585 31.9437 11.3571 31.8451 11.5543 31.8451C11.7515 31.7465 11.9487 31.6479 12.1459 31.6479C12.3431 31.5493 12.6388 31.4507 12.836 31.3521C13.6247 30.9577 14.3149 30.5634 15.005 30.0704C15.7938 29.5775 16.4839 28.9859 17.2726 28.493C17.9628 28 18.6529 27.4085 19.3431 26.8169C19.6388 26.6197 19.9346 26.3239 20.2304 26.0282C20.329 25.9296 20.5261 25.7324 20.6247 25.6338C20.7233 25.5352 20.9205 25.4366 21.0191 25.4366C21.3149 25.338 21.5121 25.2394 21.8078 25.2394C22.1036 25.1408 22.498 25.1408 22.7938 25.0423C23.6811 24.9437 24.5684 24.8451 25.4557 24.8451C26.4416 24.8451 27.4276 24.8451 28.3149 24.9437C29.3008 24.9437 30.1881 25.0423 31.174 25.0423C32.0614 25.0423 33.0473 25.0423 33.9346 24.9437C34.329 24.9437 34.8219 24.8451 35.2163 24.8451C35.4135 24.8451 35.6107 24.8451 35.8078 24.8451C35.9064 24.8451 36.1036 24.8451 36.2022 24.7465C36.3008 24.7465 36.3994 24.7465 36.498 24.6479C36.5966 24.6479 36.6952 24.5493 36.7938 24.4507C37.3853 24.0563 37.5825 23.169 37.6811 22.4789C37.7797 21.9859 37.7797 21.493 37.8783 21C38.0754 19.1268 38.3712 17.1549 38.5684 15.2817C38.7656 13.4085 38.9628 11.5352 39.16 9.66197C39.16 9.26761 39.2585 8.87324 39.2585 8.47887C39.3571 7.98592 39.4557 7.39437 39.16 6.90141C39.16 6.80282 39.0614 6.80282 39.0614 6.70423C38.9628 6.60563 38.8642 6.50704 38.7656 6.40845C38.5684 6.30986 38.3712 6.21127 38.174 6.21127C37.5825 6.11268 36.9909 6.11268 36.3994 6.11268C35.8078 6.11268 35.2163 6.11268 34.7233 6.01408C32.6529 5.91549 30.5825 5.91549 28.6107 5.8169C26.7374 5.71831 24.7656 5.71831 22.8923 5.61972C18.9487 5.52113 14.9064 5.42253 10.9628 5.42253C10.667 5.42253 10.3712 5.42253 10.0754 5.42253C9.97686 5.71831 9.68108 5.71831 9.4839 5.71831ZM11.5543 7.39437C12.5402 7.39437 13.6247 7.39437 14.7092 7.39437C16.6811 7.39437 18.5543 7.39437 20.5261 7.39437C24.5684 7.49296 28.6107 7.49296 32.6529 7.69014C33.3431 7.69014 34.0332 7.78873 34.6247 7.78873C35.6107 7.88732 36.6952 7.88732 37.6811 7.98592C37.6811 7.98592 37.6811 7.98592 37.7797 7.98592C37.7797 8.28169 37.7797 8.57747 37.7797 8.87324C37.7797 9.3662 37.7797 9.76056 37.6811 10.2535C37.5825 11.2394 37.5825 12.3239 37.5825 13.3099C37.4839 15.2817 37.2867 17.2535 37.0895 19.2254C36.8923 20.4085 36.7938 21.6901 36.3008 22.8732C36.3008 22.8732 36.3008 22.8732 36.3008 22.9718C36.3008 23.0704 36.2022 23.169 36.1036 23.2676C35.9064 23.3662 35.6107 23.3662 35.4135 23.4648C34.5262 23.5634 33.7374 23.662 33.0473 23.662C33.1459 23.5634 33.3431 23.4648 33.4416 23.3662C33.836 23.0704 34.2304 22.6761 34.5261 22.2817C34.7233 22.0845 34.7233 21.7887 34.5261 21.5915C34.4276 21.493 34.329 21.3944 34.1318 21.3944C34.0332 21.3944 33.836 21.3944 33.836 21.493C33.4416 21.8873 33.0473 22.2817 32.6529 22.5775C32.3571 22.8732 32.0614 23.169 31.7656 23.3662C31.7656 23.3662 31.667 23.4648 31.667 23.5634C31.0754 23.5634 30.5825 23.5634 29.9909 23.5634C29.6952 23.5634 29.3994 23.5634 29.1036 23.5634C29.498 23.2676 29.8923 22.8732 30.2867 22.5775C30.4839 22.3803 30.4839 22.0845 30.2867 21.8873C30.1881 21.7887 30.0895 21.6901 29.8923 21.6901C29.7938 21.6901 29.5966 21.6901 29.498 21.7887C29.1036 22.0845 28.7092 22.4789 28.3149 22.7746C28.1177 22.8732 28.0191 23.0704 27.8219 23.169C27.7233 23.2676 27.7233 23.2676 27.6247 23.3662L27.5262 23.4648C26.836 23.4648 26.2445 23.4648 25.5543 23.4648C25.7515 23.2676 25.9487 23.0704 26.2445 22.8732C26.4416 22.6761 26.4416 22.3803 26.2445 22.1831C26.1459 22.0845 26.0473 21.9859 25.8501 21.9859C25.7515 21.9859 25.5543 21.9859 25.4557 22.0845C25.16 22.2817 24.9628 22.5775 24.667 22.7746C24.5684 22.8732 24.4698 22.9718 24.3712 23.0704L24.2726 23.169C24.2726 23.169 24.2726 23.2676 24.174 23.3662C24.174 23.3662 24.174 23.3662 24.0754 23.3662C23.5825 23.3662 23.0895 23.4648 22.6952 23.4648C22.7938 23.3662 22.8923 23.2676 22.8923 23.169C22.9909 22.9718 23.1881 22.8732 23.2867 22.6761C23.3853 22.5775 23.4839 22.4789 23.4839 22.2817C23.4839 22.1831 23.4839 21.9859 23.3853 21.8873C23.2867 21.7887 23.1881 21.6901 22.9909 21.6901C22.8923 21.6901 22.6952 21.6901 22.5966 21.7887C22.3008 22.1831 22.005 22.4789 21.7092 22.8732C21.6107 23.0704 21.5121 23.169 21.4135 23.3662C20.9205 23.4648 20.329 23.4648 19.836 23.662C19.5402 23.7606 19.2445 24.0563 19.0473 24.2535C18.5543 24.6479 18.16 25.1408 17.667 25.5352C17.667 25.4366 17.667 25.338 17.5684 25.2394C17.4698 25.1408 17.3712 25.0423 17.174 25.0423C17.0754 25.0423 16.9769 25.0423 16.8783 25.1408C16.1881 25.831 15.5966 26.5211 15.005 27.3099C14.7092 27.6056 14.4135 28 14.1177 28.3944C14.0191 28.493 14.0191 28.493 14.0191 28.5915C13.9205 28.5915 13.9205 28.6901 13.8219 28.6901C13.329 28.9859 12.836 29.2817 12.2445 29.4789C12.1459 29.5775 11.9487 29.5775 11.8501 29.6761C11.7515 29.6761 11.6529 29.7746 11.5543 29.7746C11.5543 29.6761 11.5543 29.6761 11.6529 29.5775C11.7515 29.5775 11.8501 29.4789 11.9487 29.3803C11.9487 29.2817 12.0473 29.2817 12.0473 29.2817L11.9487 29.3803C12.5402 28.7887 13.0332 28.1972 13.6247 27.6056C13.8219 27.4085 13.8219 27.1127 13.6247 26.9155C13.5261 26.8169 13.4276 26.7183 13.2304 26.7183C13.1318 26.7183 12.9346 26.7183 12.9346 26.8169C12.7374 27.0141 12.5402 27.3099 12.3431 27.507C12.4416 27.3099 12.4416 27.1127 12.5402 26.9155C12.7374 26.3239 12.9346 25.7324 13.1318 25.2394C13.2304 25.2394 13.4276 25.2394 13.5262 25.1408C13.6247 24.9437 13.8219 24.8451 14.0191 24.7465C14.2163 24.5493 14.4135 24.3521 14.6107 24.1549C14.8078 23.9577 14.8078 23.662 14.6107 23.4648C14.5121 23.3662 14.4135 23.2676 14.2163 23.2676C14.1177 23.2676 13.9205 23.2676 13.9205 23.3662C13.8219 23.4648 13.7233 23.5634 13.6247 23.662C13.6247 23.662 13.6247 23.662 13.6247 23.5634C13.6247 23.4648 13.7233 23.3662 13.7233 23.2676C13.7233 23.169 13.7233 23.0704 13.7233 23.0704C13.8219 22.9718 13.9205 22.8732 13.9205 22.7746C14.0191 22.5775 14.0191 22.3803 14.0191 22.1831C13.9205 21.9859 13.8219 21.7887 13.6247 21.6901C13.4276 21.5915 13.2304 21.5915 12.9346 21.5915C12.836 21.5915 12.7374 21.5915 12.6388 21.5915C12.7374 21.493 12.836 21.3944 12.9346 21.2958C13.1318 21.0986 13.1318 20.8028 12.9346 20.6056C12.836 20.507 12.7374 20.4085 12.5402 20.4085C12.4416 20.4085 12.2445 20.4084 12.1459 20.507C11.9487 20.7042 11.6529 20.9014 11.4557 21.1972C11.2585 21.3944 11.16 21.5915 10.9628 21.6901V21.7887C10.667 21.8873 10.3712 21.8873 10.0754 21.9859C9.68108 22.0845 9.38531 22.1831 8.99094 22.2817C9.18812 22.0845 9.38531 21.7887 9.58249 21.5915C9.68108 21.493 9.77967 21.3944 9.77967 21.2958C9.77967 21.1972 9.77967 21 9.68108 20.9014C9.58249 20.8028 9.4839 20.7042 9.38531 20.7042C9.28671 20.7042 9.08953 20.7042 9.08953 20.8028C8.79376 21.0986 8.59657 21.3944 8.3008 21.7887L8.20221 21.8873C8.10361 21.9859 8.10362 22.0845 8.00502 22.1831C8.00502 22.2817 8.10362 22.3803 8.10362 22.3803C7.90643 22.3803 7.61066 22.4789 7.41347 22.4789C7.21629 22.4789 7.1177 22.4789 6.92052 22.4789C7.01911 22.3803 7.1177 22.2817 7.21629 22.1831C7.51207 21.7887 7.90643 21.3944 8.20221 21C8.3008 20.9014 8.3008 20.7042 8.3008 20.6056C8.3008 20.507 8.20221 20.3099 8.10362 20.3099C8.00502 20.2113 7.90643 20.2113 7.80784 20.2113H7.70925C7.61066 20.2113 7.51207 20.3099 7.41347 20.4085C7.1177 20.7042 6.92052 21 6.62474 21.3944C6.62474 20.9014 6.62474 20.3099 6.62474 19.8169V19.7183C6.72333 19.5211 6.92052 19.3239 7.01911 19.1268C7.21629 18.831 7.41348 18.4366 7.70925 18.1408C7.90643 17.9437 7.80784 17.5493 7.51207 17.4507C7.41348 17.3521 7.31488 17.3521 7.21629 17.3521C7.01911 17.3521 6.92052 17.4507 6.82193 17.5493C6.72333 17.6479 6.62474 17.7465 6.62474 17.9437C6.62474 17.5493 6.62474 17.1549 6.62474 16.7606C6.62474 16.2676 6.62474 15.8732 6.62474 15.3803C6.62474 15.2817 6.72333 15.2817 6.72333 15.1831C6.92052 14.8873 7.1177 14.5915 7.31488 14.3944C7.51207 14.1972 7.41347 13.8028 7.1177 13.7042C7.01911 13.6056 6.92052 13.6056 6.82193 13.6056C6.72333 13.6056 6.62474 13.6056 6.62474 13.7042C6.72333 12.6197 6.82193 11.5352 6.92052 10.4507C7.01911 9.46479 7.21629 8.57746 7.61066 7.59155C7.70925 7.39437 7.80784 7.19718 7.90643 7C7.70925 7.88732 7.80784 7.78873 7.90643 7.69014C7.90643 7.69014 8.00502 7.69014 8.00502 7.59155C8.20221 7.49296 8.3008 7.49296 8.49798 7.49296C9.4839 7.39437 10.5684 7.49296 11.5543 7.39437Z" fill="black"/>
</svg>
