<svg width="57" height="63" viewBox="0 0 57 63" fill="none" xmlns="http://www.w3.org/2000/svg">
<path d="M38.5879 8.76096C38.7848 8.8594 39.0801 8.66253 39.1785 8.46565C39.1785 8.36721 39.1785 8.17034 39.1785 8.0719C39.0801 8.0719 38.9817 7.97346 38.8832 7.87502C38.5879 7.77659 38.2926 7.67815 37.8988 7.57971C37.702 7.48127 37.5051 7.48127 37.2098 7.48127C37.1113 7.48127 36.9145 7.48127 36.816 7.48127C36.4223 7.57971 36.127 7.67815 35.8317 7.87502C35.7332 7.97346 35.5363 8.0719 35.4379 8.17034C35.3395 8.26877 35.3395 8.26877 35.3395 8.36721C35.241 8.46565 35.241 8.46565 35.241 8.56409C35.1426 8.76096 35.3395 9.05628 35.5363 9.05628C35.7332 9.15471 35.9301 9.05628 36.0285 8.8594L36.127 8.76096C36.3238 8.66253 36.5207 8.56409 36.7176 8.46565C36.9145 8.36721 37.1113 8.36721 37.2098 8.36721C37.4067 8.36721 37.5051 8.36721 37.702 8.36721C37.8988 8.56409 38.1942 8.66253 38.5879 8.76096ZM49.6129 10.9266C49.7114 10.9266 49.7114 10.8282 49.8098 10.8282C49.9083 10.7297 50.1051 10.7297 50.2036 10.6313C50.302 10.6313 50.302 10.6313 50.4004 10.5328C50.5973 10.4344 50.7942 10.4344 50.9911 10.4344C51.0895 10.4344 51.0895 10.4344 51.188 10.4344C51.2864 10.4344 51.3848 10.5328 51.4833 10.5328L51.5817 10.6313C51.6801 10.7297 51.6801 10.7297 51.6801 10.8282C51.7786 10.9266 51.7786 11.025 51.877 11.2219C51.9755 11.5172 51.9755 11.8125 52.0739 12.1078C52.0739 12.3047 52.0739 12.6 52.0739 12.7969C52.0739 12.9938 52.2708 13.2891 52.4676 13.2891C52.6645 13.2891 52.9598 13.0922 52.9598 12.8954C52.9598 12.4032 52.9598 11.911 52.8614 11.4188C52.763 11.2219 52.763 11.025 52.6645 10.8282C52.5661 10.6313 52.4676 10.5328 52.3692 10.336C52.3692 10.2375 52.2708 10.2375 52.1723 10.1391C52.0739 10.0407 52.0739 10.0407 51.9755 9.94222C51.877 9.84378 51.7786 9.84378 51.5817 9.74534C51.3848 9.6469 51.1879 9.6469 50.9911 9.6469C50.9911 9.6469 50.9911 9.6469 50.8926 9.6469C50.7942 9.6469 50.5973 9.6469 50.4989 9.6469C50.302 9.6469 50.2036 9.74534 50.0067 9.74534C49.8098 9.84378 49.6129 9.94222 49.4161 10.0407C49.2192 10.1391 49.1208 10.2375 49.0223 10.4344C48.9239 10.6313 48.9239 10.9266 49.1208 11.025C49.4161 10.9266 49.5145 10.9266 49.6129 10.9266ZM42.0332 1.67344C42.1317 1.67344 42.1317 1.575 42.2301 1.575C42.427 1.47657 42.6239 1.47657 42.7223 1.37813C42.7223 1.37813 42.7223 1.37813 42.6239 1.37813C42.9192 1.27969 43.2145 1.18125 43.5098 1.08282C44.002 0.984378 44.2973 0.984378 44.6911 0.984378C44.8879 0.984378 45.0848 0.984378 45.2817 0.984378C45.4786 0.984378 45.7739 0.984378 45.9707 1.08282C46.1676 1.08282 46.3645 1.18125 46.4629 1.18125C46.6598 1.27969 46.8567 1.37813 47.152 1.37813C47.2504 1.47657 47.4473 1.47657 47.5458 1.575C47.7426 1.67344 47.8411 1.77188 48.0379 1.96876C48.2348 2.16563 48.4317 2.36251 48.6286 2.55938C48.727 2.65782 48.8254 2.75626 48.8254 2.8547C48.9239 3.05157 49.2192 3.15001 49.4161 3.05157C49.7114 2.95313 49.8098 2.65782 49.7114 2.36251C49.5145 2.06719 49.3176 1.77188 49.1208 1.47657C48.8254 1.37813 48.6286 1.18125 48.3333 0.984378C48.0379 0.787502 47.8411 0.689065 47.5458 0.492189C47.2504 0.295313 46.8567 0.196876 46.5614 0.0984378C46.1676 2.20026e-08 45.7739 0 45.2817 0C44.9864 0 44.7895 0 44.4942 0C44.1004 0 43.8051 0.0984378 43.4114 0.196876C43.1161 0.295313 42.7223 0.393751 42.427 0.492189C42.2301 0.590627 42.0332 0.689065 41.8364 0.787502C41.7379 0.787502 41.7379 0.88594 41.6395 0.88594C41.6395 0.984378 41.6395 0.984378 41.541 0.984378C41.3442 1.18125 41.3442 1.37813 41.541 1.575C41.6395 1.77188 41.9348 1.77188 42.0332 1.67344ZM42.427 0.492189C42.427 0.492189 42.5254 0.492189 42.427 0.492189C42.5254 0.492189 42.5254 0.492189 42.427 0.492189Z" fill="black"/>
<path d="M56.208 18.0137C55.9127 18.0137 55.7158 18.1121 55.7158 18.309C55.6174 18.7027 55.4205 19.0965 55.2236 19.3918C55.1252 19.5887 55.0267 19.7856 54.8298 19.9824C54.633 20.1793 54.5345 20.4746 54.3377 20.6715C54.2392 20.8684 54.0424 20.9668 53.9439 21.0652C53.747 21.2621 53.6486 21.3606 53.4517 21.459C52.8611 21.9512 52.172 22.2465 51.3845 22.5418C51.1877 22.6402 50.9908 22.6402 50.7939 22.7387C50.597 22.8371 50.4002 22.8371 50.1048 22.9356C49.7111 23.034 49.2189 23.034 48.8251 23.1324C48.7267 23.1324 48.7267 23.1324 48.6283 23.1324H48.7267C48.6283 23.1324 48.5298 23.1324 48.4314 23.1324C48.333 23.1324 48.2345 23.2309 48.2345 23.3293C48.2345 23.4278 48.2345 23.5262 48.2345 23.6246C48.2345 23.7231 48.333 23.8215 48.4314 23.8215C48.6283 23.8215 48.7267 23.8215 48.9236 23.8215C49.1205 23.8215 49.4158 23.8215 49.6126 23.8215C50.0064 23.8215 50.4002 23.7231 50.7939 23.6246C51.1877 23.5262 51.5814 23.4278 51.9752 23.2309C52.3689 23.034 52.7627 22.8371 53.1564 22.6402C53.5502 22.4434 53.8455 22.2465 54.1408 21.9512C54.3377 21.7543 54.4361 21.6559 54.633 21.459C54.8299 21.2621 54.9283 21.0652 55.1252 20.8684C55.7158 20.0809 56.1095 19.1949 56.4049 18.309C56.6017 18.4074 56.4049 18.1121 56.208 18.0137ZM23.5266 28.645C23.5266 27.8575 23.5266 27.07 23.4282 26.2824C23.4282 26.0856 23.3298 25.8887 23.3298 25.5934C23.3298 25.4949 23.2313 25.2981 23.2313 25.1996C23.1329 25.1012 23.0344 24.9043 22.936 24.8059C22.8376 24.7074 22.6407 24.609 22.5423 24.5106C22.4438 24.5106 22.4438 24.4121 22.3454 24.4121C22.2469 24.3137 22.0501 24.3137 21.9516 24.2153C21.7548 24.1168 21.4594 24.1168 21.2626 24.0184C20.8688 23.9199 20.4751 23.9199 20.1797 23.8215C19.6876 23.7231 19.1954 23.7231 18.8016 23.6246C17.0297 23.4278 15.2579 23.3293 13.486 23.3293C12.9938 23.3293 12.6 23.3293 12.1079 23.3293C11.6157 23.3293 11.025 23.3293 10.5328 23.3293C9.54847 23.3293 8.56409 23.3293 7.57971 23.4278C6.59533 23.4278 5.61095 23.5262 4.72501 23.6246C3.74064 23.7231 2.75626 23.8215 1.77188 23.9199C1.67344 23.9199 1.67344 23.9199 1.575 23.9199C1.47657 23.9199 1.37813 24.0184 1.27969 24.1168C1.18125 24.2153 1.08282 24.4121 1.08282 24.609C1.08282 24.8059 1.18125 25.0028 1.27969 25.1012C1.37813 25.1996 1.47657 25.2981 1.575 25.2981C1.67344 25.2981 1.87032 25.2981 1.96876 25.2981C2.46094 25.1996 2.95313 25.1012 3.54376 25.1012C6.00471 24.8059 8.56409 24.609 11.025 24.609C12.3047 24.609 13.6829 24.609 15.061 24.609C16.3407 24.609 17.7188 24.7074 18.9985 24.9043C19.4907 25.0028 19.9829 25.0028 20.3766 25.1012C20.7704 25.1996 21.1641 25.2981 21.5579 25.4949C21.6563 25.4949 21.7548 25.5934 21.8532 25.6918C21.9516 25.8887 21.9516 26.184 22.0501 26.4793C22.2469 28.0543 22.3454 29.6293 22.3454 31.2043C22.4438 32.8778 22.4438 34.5512 22.4438 36.2247C22.4438 39.67 22.2469 43.1153 22.0501 46.4622C21.9516 48.6278 21.8532 50.7935 21.7548 53.0575C21.7548 54.1403 21.7548 55.2232 21.7548 56.306C21.7548 57.3888 21.7548 58.4716 21.5579 59.456C21.5579 59.5544 21.5579 59.6529 21.4594 59.7513C21.4594 59.9482 21.361 60.1451 21.2626 60.3419C21.2626 60.4404 21.1641 60.4404 21.1641 60.5388C20.8688 60.6372 20.5735 60.7357 20.1797 60.7357C19.786 60.8341 19.3922 60.8341 18.9985 60.9326C18.9001 60.9326 18.8016 60.9326 18.7032 60.9326C18.9985 60.6372 19.2938 60.3419 19.5891 60.0466C19.786 59.8497 19.786 59.6529 19.5891 59.456C19.4907 59.3576 19.3922 59.3575 19.2938 59.3575C19.1954 59.3575 19.0969 59.3576 18.9985 59.456C18.6047 59.7513 18.3094 60.1451 17.9157 60.4404C17.7188 60.6372 17.5219 60.8341 17.3251 61.031C16.636 61.1294 15.9469 61.2279 15.3563 61.2279C15.5532 61.031 15.8485 60.9326 16.0454 60.7357C16.2422 60.6372 16.2422 60.3419 16.1438 60.2435C16.0454 60.1451 16.0454 60.0466 15.9469 60.0466H15.8485C15.75 60.0466 15.75 60.0466 15.6516 60.0466C15.2579 60.3419 14.8641 60.6372 14.4704 60.9326L14.3719 61.031C14.2735 61.1294 14.175 61.2279 14.175 61.3263C13.3875 61.4247 12.6985 61.4247 11.911 61.4247C12.2063 61.2279 12.6 60.9326 12.8954 60.7357C12.9938 60.6372 13.0922 60.6372 13.0922 60.4404C13.0922 60.3419 13.0922 60.2435 13.0922 60.1451C12.9938 60.0466 12.8954 59.9482 12.7969 59.9482H12.6985C12.6 59.9482 12.6 59.9482 12.5016 60.0466C11.911 60.4404 11.4188 60.8341 10.8282 61.2279C10.7297 61.2279 10.7297 61.3263 10.6313 61.3263C10.4344 61.5232 10.4344 61.6216 10.4344 61.7201C9.6469 61.7201 8.8594 61.8185 7.97346 61.8185C8.0719 61.7201 8.26877 61.6216 8.36721 61.5232C8.66253 61.3263 8.95784 61.1294 9.25315 60.9326C9.35159 60.8341 9.45003 60.8341 9.45003 60.7357C9.54847 60.6372 9.6469 60.6372 9.6469 60.4404C9.6469 60.3419 9.6469 60.2435 9.6469 60.1451C9.54847 60.0466 9.54847 59.9482 9.35159 59.9482H9.25315C9.15471 59.9482 9.15472 59.9482 9.05628 60.0466C8.66253 60.3419 8.26877 60.6372 7.87502 60.8341C7.67815 60.9326 7.57971 61.031 7.48127 61.2279C7.38283 61.3263 7.2844 61.4247 7.08752 61.5232C6.98908 61.6216 6.98908 61.8185 6.98908 61.9169C6.20158 61.9169 5.41408 61.9169 4.62658 61.8185C4.72501 61.7201 4.72501 61.7201 4.82345 61.6216C4.92189 61.5232 5.11877 61.4247 5.2172 61.3263C5.51252 61.1294 5.80783 60.8341 6.10314 60.6372C6.30002 60.4404 6.30002 60.1451 6.10314 60.0466C6.00471 59.9482 5.90627 59.9482 5.80783 59.9482C5.70939 59.9482 5.61095 59.9482 5.51252 60.0466C5.2172 60.2435 4.92189 60.5388 4.62658 60.7357C4.52814 60.8341 4.33126 60.9326 4.23282 61.1294C4.13439 61.2279 4.03595 61.2279 3.93751 61.3263C3.83907 61.4247 3.83907 61.5232 3.83907 61.6216C3.83907 61.7201 3.83907 61.8185 3.93751 61.8185C3.74064 61.8185 3.54376 61.8185 3.34689 61.8185C2.8547 61.7201 2.46094 61.6216 1.96876 61.5232C2.36251 61.1294 2.55938 61.031 2.75626 60.8341C3.15001 60.5388 3.44532 60.1451 3.83907 59.7513C4.03595 59.5544 4.03595 59.2591 3.83907 59.1607C3.74064 59.0622 3.54376 58.9638 3.44532 58.9638C3.34689 58.9638 3.24845 58.9638 3.15001 59.0622C2.75626 59.456 2.36251 59.8497 1.96876 60.2435C1.77188 60.4404 1.67344 60.5388 1.575 60.7357C1.575 60.1451 1.575 59.6529 1.575 59.0622C1.67344 58.9638 1.77188 58.8654 1.87032 58.8654C2.06719 58.6685 2.16563 58.57 2.36251 58.3732C2.75626 57.9794 3.15001 57.5857 3.44532 57.1919C3.6422 56.995 3.6422 56.7982 3.44532 56.6013C3.34689 56.5029 3.24845 56.5029 3.15001 56.5029C3.05157 56.5029 2.95313 56.5029 2.8547 56.6013C2.46095 56.995 2.06719 57.3888 1.77188 57.7825C1.67344 57.7825 1.575 57.7825 1.575 57.881C1.575 57.1919 1.575 56.5029 1.575 55.7154C1.575 55.6169 1.575 55.5185 1.575 55.42C1.67344 55.42 1.77188 55.42 1.87032 55.3216C2.06719 55.1247 2.26407 54.9278 2.36251 54.8294C2.65782 54.5341 2.95313 54.2388 3.24845 53.9435C3.44532 53.7466 3.44532 53.4513 3.24845 53.3528C3.15001 53.2544 3.05157 53.156 2.95313 53.156C2.8547 53.156 2.75626 53.156 2.65782 53.2544C2.36251 53.5497 2.06719 53.845 1.87032 54.0419C1.77188 54.1403 1.77188 54.2388 1.67344 54.2388C1.67344 52.9591 1.77188 51.7778 1.77188 50.4981C1.87032 46.9544 1.77188 43.4106 1.67344 39.9653C1.575 37.6028 1.37813 35.2403 1.27969 32.8778C1.18125 31.6965 1.18125 30.4168 1.08282 29.2356C1.08282 28.645 0.984378 28.0543 0.984378 27.4637C0.88594 26.8731 0.88594 26.2824 0.787502 25.6918C0.787502 25.5934 0.787502 25.4949 0.787502 25.2981C0.787502 25.1012 0.590627 24.9043 0.393751 24.9043C0.196876 24.9043 0 25.1012 0 25.2981C0 25.3965 0 25.5934 0 25.6918C0 25.7903 0 25.8887 0 25.9871C0 26.0856 0 26.184 0 26.184C0 26.6762 0 27.1684 0 27.5621C0.0984378 28.4481 0.0984376 29.334 0.196875 30.1215C0.295313 31.795 0.492189 33.4684 0.492189 35.2403C0.492189 37.4059 0.492189 39.2762 0.590627 41.0481C0.689065 42.7216 0.689064 44.395 0.689064 46.0684C0.689064 47.8403 0.689065 49.6122 0.590627 51.2856C0.492189 52.9591 0.393751 54.731 0.393751 56.4044C0.393751 57.2904 0.295313 58.0779 0.295313 58.9638C0.295313 59.3576 0.295313 59.7513 0.196875 60.2435C0.196875 60.4404 0.196875 60.7357 0.196875 60.9326C0.196875 61.4247 0.492189 61.9169 0.88594 62.2122C0.984378 62.3107 0.984378 62.3107 1.08282 62.4091C1.18125 62.5076 1.27969 62.5076 1.37813 62.5076C1.575 62.606 1.67344 62.606 1.87032 62.7044C2.16563 62.8029 2.46094 62.8029 2.75626 62.9013C3.24845 62.9998 3.6422 62.9997 4.13439 62.9997C4.92189 62.9997 5.80783 62.9997 6.59533 62.9997C8.26877 62.9997 10.0407 62.9013 11.7141 62.8029C13.3875 62.7044 15.061 62.7044 16.7344 62.606C17.5219 62.606 18.3094 62.5076 19.0969 62.4091C19.8844 62.3107 20.6719 62.3107 21.4594 62.1138C21.7548 62.0154 22.0501 61.9169 22.2469 61.7201C22.3454 61.6216 22.4438 61.4247 22.5423 61.2279C22.6407 61.031 22.7391 60.7357 22.7391 60.5388C22.7391 60.3419 22.8376 60.1451 22.8376 59.9482C22.8376 59.6529 22.8376 59.456 22.936 59.1607C23.0344 58.2747 22.936 57.4872 22.936 56.6013C22.936 54.9278 22.936 53.2544 23.0344 51.4825C23.1329 49.7106 23.2313 47.9388 23.3298 46.1669C23.4282 44.4934 23.5266 42.9184 23.6251 41.245C23.7235 39.5716 23.8219 37.7997 23.8219 36.1262C23.8219 34.4528 23.8219 32.7793 23.8219 31.1059C23.5266 30.3184 23.5266 29.4325 23.5266 28.645Z" fill="black"/>
<path d="M4.42813 32.9766C4.42813 32.1891 4.52657 31.5 4.62501 30.8109C4.62501 30.6141 4.72344 30.4172 4.72344 30.2203C4.72344 30.0234 4.72344 29.8266 4.62501 29.6297C4.52657 29.4328 4.42813 29.3344 4.23125 29.3344C4.03438 29.3344 3.8375 29.3344 3.64063 29.4328C3.44375 29.5313 3.34531 29.7281 3.34531 29.8266C3.24688 30.2203 3.24688 30.7125 3.24688 31.1063C3.24688 31.5 3.14844 31.8938 3.14844 32.2875C3.14844 33.075 3.14844 33.8625 3.14844 34.65C3.14844 36.225 3.24688 37.8985 3.34531 39.4735C3.44375 41.1469 3.54219 42.7219 3.64063 44.3954C3.73906 45.1829 3.73906 45.9704 3.8375 46.7579C3.93594 47.5454 3.93594 48.3329 4.03438 49.1204C4.03438 49.5141 4.13282 49.9079 4.23125 50.3016C4.32969 50.5969 4.42813 50.8923 4.52657 51.0891C4.52657 51.1876 4.625 51.286 4.72344 51.3844C4.92032 51.4829 5.01876 51.5813 5.21563 51.6798C5.9047 51.9751 6.6922 51.8766 7.38126 51.7782C9.05471 51.5813 10.6297 51.5813 12.3032 51.286C13.0907 51.1876 13.7797 51.0891 14.5672 50.8923C14.961 50.7938 15.2563 50.6954 15.65 50.6954C16.0438 50.5969 16.4375 50.4985 16.8313 50.4985C17.0282 50.4985 17.225 50.4001 17.4219 50.3016C17.5204 50.3016 17.6188 50.2032 17.7172 50.2032C17.8157 50.1048 17.9141 50.1048 18.111 50.0063C18.3079 49.9079 18.4063 49.8094 18.5047 49.711C18.6032 49.6126 18.7016 49.4157 18.8 49.2188C18.8985 49.0219 18.8985 48.9235 18.8985 48.7266C18.8985 48.5298 18.8985 48.3329 18.8985 48.136C18.8985 47.3485 18.9969 46.561 18.9969 45.7735C18.9969 44.986 18.9969 44.1985 18.9969 43.411C18.9969 42.6235 18.9969 41.7375 18.9969 40.95C19.0954 39.2766 19.1938 37.6032 19.2922 35.9297C19.3907 35.1422 19.3907 34.2563 19.4891 33.4688C19.5876 32.6813 19.5875 31.8938 19.5875 31.0078C19.5875 30.6141 19.5875 30.2203 19.5875 29.8266C19.5875 29.6297 19.5875 29.4328 19.5875 29.2359C19.5875 29.0391 19.5875 28.9406 19.5875 28.8422C19.5875 28.5469 19.4891 28.35 19.3907 28.1531C19.3907 28.1531 19.3907 28.0547 19.2922 28.0547C19.1938 27.9563 19.1938 27.8578 19.0954 27.8578C18.9969 27.7594 18.8 27.6609 18.7016 27.6609C18.5047 27.5625 18.2094 27.5625 18.0125 27.6609C17.6188 27.6609 17.3235 27.7594 16.9297 27.7594C14.7641 27.8578 12.6969 27.8578 10.5313 27.8578C9.44846 27.8578 8.36564 27.8578 7.38126 27.7594C6.88907 27.7594 6.29845 27.7594 5.80626 27.6609C5.51095 27.6609 5.31407 27.6609 5.01876 27.6609C4.92032 27.6609 4.82188 27.6609 4.62501 27.6609C4.52657 27.6609 4.42813 27.6609 4.32969 27.6609C4.52657 27.5625 4.52657 27.5625 4.52657 27.5625C4.32969 27.5625 4.13282 27.6609 4.03438 27.8578C3.93594 28.0547 4.13282 28.35 4.32969 28.35C4.42813 28.35 4.52657 28.35 4.62501 28.35C4.92032 28.35 5.11719 28.4484 5.41251 28.4484C5.70782 28.4484 6.00313 28.4484 6.29845 28.4484C6.88907 28.4484 7.4797 28.4484 8.07033 28.5469C9.25158 28.6453 10.5313 28.6453 11.7125 28.7438C12.8938 28.8422 14.075 28.9406 15.2563 28.9406C15.8469 28.9406 16.4375 28.9406 16.9297 28.9406C17.225 28.9406 17.4219 28.9406 17.7172 28.9406C17.9141 28.9406 18.111 28.9406 18.3079 28.9406C18.4063 29.1375 18.4063 29.3344 18.5047 29.5313C18.7016 31.0078 18.6032 32.5828 18.5047 34.0594C18.4063 34.8469 18.4063 35.6344 18.3079 36.4219C18.2094 37.2094 18.2094 37.9969 18.111 38.686C18.0125 40.261 17.9141 41.836 17.8157 43.411C17.8157 44.1985 17.8157 44.8876 17.7172 45.6751C17.7172 46.3641 17.6188 47.1516 17.5204 47.8407C17.5204 48.136 17.4219 48.4313 17.3235 48.6282C17.3235 48.6282 17.225 48.6282 17.225 48.7266C17.1266 48.8251 17.0282 48.8251 16.9297 48.9235C16.8313 48.9235 16.8313 49.0219 16.7329 49.0219C15.4532 49.5141 14.1735 49.711 12.7953 49.9079C12.9922 49.8094 13.0907 49.711 13.2875 49.5141C13.8782 49.1204 14.3703 48.6282 14.961 48.2344C15.0594 48.136 15.0594 48.0376 15.0594 47.9391C15.0594 47.8407 15.0594 47.7423 14.961 47.6438C14.8625 47.5454 14.7641 47.5454 14.6657 47.5454C14.5672 47.5454 14.4688 47.5454 14.3703 47.6438C13.6813 48.136 12.9922 48.7266 12.3032 49.2188C12.1063 49.4157 11.9094 49.5141 11.7125 49.711C11.6141 49.711 11.5157 49.8094 11.5157 49.8094C11.4172 50.1048 11.4172 50.1048 11.3188 50.2032C10.6297 50.3016 9.94065 50.3016 9.25158 50.4001C9.44846 50.2032 9.74377 50.0063 9.94065 49.8094C10.5313 49.3173 11.0235 48.9235 11.6141 48.5298C11.811 48.4313 11.811 48.136 11.6141 47.9391C11.5157 47.8407 11.4172 47.8407 11.3188 47.8407C11.2203 47.8407 11.1219 47.8407 11.0235 47.9391C10.4328 48.3329 9.94065 48.8251 9.35002 49.2188C9.15314 49.4157 8.85783 49.6126 8.66095 49.8094C8.56252 49.9079 8.46408 50.0063 8.36564 50.1048C8.2672 50.2032 8.2672 50.2032 8.16877 50.3016C8.07033 50.4001 8.07033 50.4985 8.07033 50.5969C7.87345 50.5969 7.67658 50.5969 7.4797 50.5969C6.98751 50.5969 6.59376 50.5969 6.10157 50.5969C6.10157 50.5969 6.20001 50.5969 6.20001 50.4985C6.39688 50.3016 6.6922 50.1048 6.88907 49.8094C7.4797 49.3173 8.07033 48.7266 8.56252 48.2344C8.75939 48.0376 8.75939 47.8407 8.56252 47.6438C8.46408 47.5454 8.36564 47.5454 8.2672 47.5454C8.16877 47.5454 8.07033 47.5454 7.97189 47.6438C7.38126 48.136 6.79064 48.7266 6.20001 49.2188C6.00313 49.4157 5.70782 49.711 5.41251 49.9079C5.31407 50.0063 5.31407 50.0063 5.21563 50.1048C5.01876 49.6126 4.92032 49.1204 4.82188 48.6282C4.82188 48.6282 4.82188 48.6282 4.82188 48.5298C4.92032 48.5298 5.01876 48.5298 5.11719 48.4313C5.21563 48.2344 5.41251 48.136 5.60938 48.0376C5.80626 47.8407 6.10157 47.6438 6.29845 47.3485C6.79064 46.9547 7.18439 46.4626 7.67658 46.0688C7.87345 45.8719 7.87345 45.5766 7.67658 45.4782C7.57814 45.3797 7.4797 45.3797 7.38126 45.3797C7.28282 45.3797 7.18439 45.3797 7.08595 45.4782C6.59376 45.8719 6.20001 46.2657 5.70782 46.7579C5.51094 46.9547 5.31407 47.1516 5.01876 47.3485C4.92032 47.4469 4.82188 47.5454 4.72344 47.6438C4.625 46.7579 4.52657 45.9704 4.52657 45.0844C4.52657 45.0844 4.52657 45.1829 4.62501 45.1829C4.72344 45.2813 4.82188 45.2813 4.92032 45.2813C5.01876 45.2813 5.11719 45.1829 5.11719 45.1829C5.41251 44.8876 5.70782 44.5922 6.00313 44.3954C6.39689 44.0016 6.79064 43.6079 7.28283 43.3125C7.4797 43.1157 7.4797 42.8204 7.28283 42.7219C7.18439 42.6235 7.08595 42.6235 6.98751 42.6235C6.88907 42.6235 6.79064 42.6235 6.6922 42.7219C6.29845 43.1157 5.80626 43.411 5.41251 43.8047C5.21563 44.0016 5.11719 44.1 4.92032 44.2969C4.82188 44.3954 4.625 44.5922 4.52657 44.6907C4.52657 44.4938 4.52657 44.3954 4.52657 44.2969C4.52657 43.9032 4.52657 43.411 4.42813 43.0172C4.52657 43.0172 4.52657 43.0172 4.62501 42.9188C4.92032 42.6235 5.21563 42.3282 5.51094 42.0329C5.9047 41.6391 6.39689 41.2454 6.79064 40.8516C6.98751 40.6547 6.98751 40.3594 6.79064 40.261C6.6922 40.1625 6.59376 40.1625 6.49532 40.1625C6.39689 40.1625 6.29845 40.1625 6.20001 40.261C5.80626 40.6547 5.41251 40.95 5.01876 41.3438C4.82188 41.5407 4.625 41.7375 4.52657 41.836L4.42813 41.9344C4.52657 41.1469 4.52657 40.4579 4.52657 39.8672H4.62501C4.82188 39.6703 5.01876 39.4735 5.21563 39.2766C5.51094 38.9813 5.9047 38.686 6.20001 38.3907C6.39688 38.1938 6.39688 37.8985 6.20001 37.8C6.10157 37.7016 6.00313 37.7016 5.9047 37.7016C5.80626 37.7016 5.70782 37.7016 5.60938 37.8C5.31407 38.0953 4.92032 38.3907 4.62501 38.686C4.52657 38.7844 4.52657 38.7844 4.42813 38.8828C4.42813 37.9969 4.32969 37.111 4.32969 36.225C4.42813 36.4219 4.72344 36.4219 4.92032 36.225C5.01876 36.1266 5.11719 36.0281 5.21563 36.0281C5.31407 35.9297 5.51095 35.8313 5.60938 35.7328C5.70782 35.6344 5.80626 35.6344 5.80626 35.536C5.80626 35.4375 5.80626 35.3391 5.80626 35.2406C5.70782 35.1422 5.70782 35.0438 5.60938 35.0438H5.51094C5.41251 35.0438 5.31407 35.0438 5.21563 35.1422C5.01876 35.2406 4.82188 35.4375 4.72344 35.536C4.625 35.4375 4.52657 35.4375 4.42813 35.536C4.42813 35.536 4.42813 35.536 4.42813 35.6344C4.42813 35.4375 4.42813 35.2406 4.42813 35.0438C4.42813 34.3547 4.32969 33.6656 4.42813 32.9766ZM18.3079 28.9406C18.4063 29.0391 18.4063 29.0391 18.3079 28.9406C18.4063 29.0391 18.4063 29.0391 18.3079 28.9406ZM5.41251 44.986C5.31407 44.986 5.41251 44.986 5.41251 44.986C5.31407 44.986 5.31407 44.986 5.41251 44.986ZM13.6813 54.6329L13.5828 54.5345C13.4844 54.436 13.386 54.436 13.2875 54.3376C13.0907 54.2391 12.9922 54.2391 12.7953 54.1407C12.6969 54.1407 12.5 54.1407 12.4016 54.1407C12.3032 54.1407 12.2047 54.1407 12.1063 54.1407C11.9094 54.1407 11.7125 54.2391 11.5157 54.2391C11.3188 54.3376 11.2203 54.3376 11.0235 54.436L10.925 54.5345C10.8266 54.6329 10.8266 54.7313 10.7281 54.7313C10.7281 54.8298 10.6297 54.8298 10.6297 54.9282C10.4328 54.8298 10.236 54.9282 10.0391 55.0266C9.84221 55.1251 9.74377 55.322 9.64533 55.4204C9.54689 55.5188 9.44846 55.7157 9.35002 55.8141C9.25158 56.011 9.15314 56.2079 9.05471 56.4048C8.95627 56.6017 8.85783 56.897 8.85783 57.0938C8.85783 57.2907 8.85783 57.586 8.85783 57.7829C8.85783 57.8813 8.85783 57.9798 8.85783 57.9798C8.85783 58.0782 8.95627 58.1767 9.05471 58.3735C9.15314 58.5704 9.25158 58.6688 9.44846 58.8657C9.5469 58.9642 9.64533 59.0626 9.74377 59.0626C9.84221 59.161 10.0391 59.2595 10.1375 59.2595C10.5313 59.4563 10.925 59.4563 11.3188 59.4563C11.5156 59.4563 11.7125 59.4563 11.9094 59.3579C12.1063 59.3579 12.3032 59.161 12.5 59.161C12.5985 59.161 12.5985 59.0626 12.6969 59.0626C12.7953 58.9642 12.8938 58.8657 12.9922 58.7673C13.0907 58.6688 13.1891 58.5704 13.2875 58.3735C13.386 58.1767 13.4844 57.9798 13.5828 57.8813C13.7797 57.586 13.8782 57.1923 13.9766 56.897C14.075 56.7001 14.075 56.4048 14.1735 56.2079C14.1735 56.011 14.2719 55.8141 14.2719 55.6173C14.2719 55.5188 14.2719 55.4204 14.1735 55.2235C14.1735 55.1251 14.075 55.0266 14.075 54.9282C13.8782 54.9282 13.7797 54.8298 13.6813 54.6329ZM11.3188 55.5188C11.2203 55.5188 11.2203 55.5188 11.3188 55.5188V55.5188ZM10.0391 57.7829C10.0391 57.6845 10.0391 57.6845 10.0391 57.7829C10.0391 57.6845 10.0391 57.6845 10.0391 57.7829C10.0391 57.6845 10.0391 57.6845 10.0391 57.7829ZM12.7953 56.3063C12.7953 56.5032 12.6969 56.7001 12.5985 56.9954C12.5 57.2907 12.3032 57.586 12.1063 57.7829C12.0078 57.8813 11.9094 57.9798 11.811 58.1767C11.7125 58.2751 11.7125 58.2751 11.6141 58.3735C11.5157 58.3735 11.4172 58.472 11.4172 58.472H11.3188C11.2203 58.472 11.1219 58.472 11.0235 58.472C10.925 58.472 10.8266 58.472 10.7281 58.3735C10.6297 58.3735 10.5313 58.2751 10.4328 58.1767C10.3344 58.0782 10.3344 58.0782 10.236 57.9798L10.1375 57.8813C10.1375 57.7829 10.1375 57.7829 10.0391 57.6845C10.0391 57.586 10.0391 57.4876 10.0391 57.3892C10.0391 57.2907 10.1375 57.0938 10.1375 56.9954C10.1375 56.897 10.236 56.7985 10.3344 56.7001C10.4328 56.6016 10.4328 56.5032 10.5313 56.4048C10.6297 56.3063 10.7281 56.2079 10.8266 56.1095L10.925 56.011C11.0235 56.011 11.1219 55.9126 11.2203 55.8141C11.3188 55.8141 11.4172 55.8141 11.4172 55.7157C11.6141 55.6173 11.811 55.6173 12.0078 55.5188C12.1063 55.5188 12.2047 55.5188 12.3032 55.5188C12.4016 55.5188 12.5 55.5188 12.5985 55.6173C12.5985 55.6173 12.6969 55.6173 12.6969 55.7157C12.6969 55.7157 12.6969 55.7157 12.7953 55.8141C12.7953 55.8141 12.7953 55.9126 12.8938 55.9126V56.011V56.1095C12.8938 56.1095 12.7953 56.2079 12.7953 56.3063Z" fill="black"/>
<path d="M32.4841 22.5426C32.7794 22.7395 33.0747 22.8379 33.37 22.9364C33.5669 23.0348 33.6653 23.0348 33.8622 23.1333C34.0591 23.2317 34.2559 23.3301 34.4528 23.3301C34.6497 23.4286 34.945 23.4286 35.1419 23.527C35.3387 23.6255 35.6341 23.6255 35.8309 23.7239C36.0278 23.7239 36.2247 23.8223 36.4216 23.8223C36.6184 23.8223 36.8153 23.9208 36.9138 23.9208C37.1106 23.9208 37.4059 23.9208 37.6028 24.0192C37.8981 24.0192 38.095 24.0192 38.3903 24.0192C38.7841 24.0192 39.1778 24.0192 39.5716 24.0192C39.7684 24.0192 39.9653 24.0192 40.1622 24.0192C40.4575 24.0192 40.7528 24.0192 40.9497 23.9208C41.1466 23.9208 41.4419 23.8223 41.6388 23.8223C41.8356 23.8223 41.9341 23.7239 42.131 23.7239C42.3278 23.7239 42.5247 23.6255 42.82 23.6255C43.1153 23.6255 43.3122 23.527 43.6075 23.4286C44.395 23.2317 45.1825 23.0348 45.97 22.7395C46.7575 22.4442 47.545 22.1489 48.3325 21.8536C48.5294 21.7551 48.7263 21.6567 48.9232 21.5583C49.12 21.4598 49.4154 21.3614 49.6122 21.1645C49.8091 21.0661 50.006 20.9676 50.1044 20.8692C50.3013 20.7708 50.4982 20.6723 50.695 20.4754C51.3841 19.9833 52.0732 19.4911 52.6638 18.802C53.4513 18.0145 54.0419 17.1286 54.5341 16.2426C55.3216 14.7661 55.5185 13.0926 55.4201 11.4192C55.4201 10.7301 55.2232 10.1395 55.0263 9.45041C54.8294 8.85978 54.5341 8.36759 54.2388 7.87541C54.1404 7.67853 53.9435 7.58009 53.8451 7.38322C53.6482 7.18634 53.3529 6.98947 53.156 6.79259C53.0576 6.89103 52.7622 6.79259 52.4669 6.69415C52.1716 6.59571 51.8763 6.59571 51.581 6.49728C51.4825 6.49728 51.2857 6.49728 51.1872 6.49728C50.7935 6.49728 50.3013 6.59571 49.9075 6.69415C49.8091 6.69415 49.6122 6.79259 49.3169 6.89103C49.0216 6.98947 48.7263 7.18634 48.431 7.38322C48.2341 6.69415 48.0372 6.00509 47.7419 5.41446C47.4466 4.82383 46.856 4.23321 46.2653 3.83946C45.6747 3.54414 44.9857 3.24883 44.2966 3.15039C44.0997 3.15039 44.0013 3.15039 43.8044 3.15039C43.706 3.15039 43.706 3.15039 43.6075 3.15039C43.4106 3.15039 43.3122 3.15039 43.1153 3.24883C42.9185 3.24883 42.6231 3.34727 42.4263 3.4457C42.0325 3.54414 41.6388 3.74102 41.245 3.93789C40.9497 4.13477 40.556 4.33164 40.2606 4.52852C40.0638 4.62696 39.8669 4.82383 39.67 5.02071C39.4731 5.11915 39.3747 5.31602 39.2763 5.5129C39.2763 5.5129 39.2763 5.5129 39.1778 5.5129C38.7841 5.31602 38.3903 5.21758 37.8981 5.11915C37.7013 5.11915 37.5044 5.02071 37.3075 5.02071C37.1106 5.02071 36.9138 5.02071 36.6184 5.02071C36.4216 5.02071 36.1263 5.02071 35.9294 5.02071C35.5356 5.11915 35.2403 5.21758 34.8466 5.31602C34.4528 5.5129 34.0591 5.70977 33.7637 6.00509C33.1731 6.49728 32.5825 7.18634 32.2872 7.97384C31.9919 8.76135 31.8934 9.54885 31.8934 10.3364C31.8934 10.5332 31.8934 10.6317 31.9919 10.8285C31.9919 11.0254 32.0903 11.2223 32.1887 11.4192C31.9919 11.5176 31.795 11.5176 31.5981 11.616C31.1059 11.8129 30.7122 12.1082 30.4169 12.502C29.9247 12.8957 29.6294 13.3879 29.334 13.8801C29.0387 14.2739 28.8419 14.8645 28.7434 15.2582C28.645 15.4551 28.645 15.7504 28.645 15.9473C28.645 16.2426 28.5465 16.5379 28.5465 16.8332C28.5465 17.4239 28.645 18.0145 28.8419 18.5067C28.9403 18.9989 29.1372 19.3926 29.4325 19.8848C29.6294 20.2786 29.9247 20.5739 30.1215 20.8692C30.4169 21.2629 30.7122 21.5583 31.1059 21.7551C31.6966 22.1489 32.0903 22.3458 32.4841 22.5426ZM31.1059 19.9833C31.1059 19.8848 31.0075 19.7864 30.909 19.6879C31.1059 19.3926 31.4012 19.1958 31.6965 18.9989C32.1887 18.6051 32.6809 18.1129 33.1731 17.7192C33.37 17.5223 33.37 17.227 33.1731 17.1286C33.0747 17.0301 32.9762 17.0301 32.8778 17.0301C32.7794 17.0301 32.6809 17.0301 32.5825 17.1286C32.0903 17.5223 31.6965 17.9161 31.2044 18.3098C31.0075 18.5067 30.8106 18.7036 30.6137 18.802L30.5153 18.9004C30.5153 18.9004 30.5153 18.802 30.4169 18.802C30.3184 18.6051 30.3184 18.4083 30.22 18.3098C30.22 18.0145 30.1215 17.7192 30.1215 17.5223C30.1215 17.5223 30.22 17.5223 30.22 17.4239C30.3184 17.3254 30.4169 17.227 30.5153 17.1286C30.6137 17.0301 30.8106 16.9317 30.909 16.7348C31.2044 16.4395 31.5981 16.1442 31.8934 15.8489C32.0903 15.652 32.0903 15.4551 31.8934 15.2582C31.795 15.1598 31.6966 15.1598 31.5981 15.1598C31.4997 15.1598 31.4012 15.1598 31.3028 15.2582C31.0075 15.5536 30.6137 15.8489 30.3184 16.1442C30.22 16.2426 30.1215 16.3411 30.1215 16.3411C30.1215 16.2426 30.1215 16.1442 30.1215 16.0457C30.1215 15.8489 30.22 15.652 30.22 15.5536C30.3184 15.3567 30.3184 15.0614 30.4169 14.8645C30.5153 14.6676 30.5153 14.5692 30.6137 14.4707C30.7122 14.2739 30.909 13.9785 31.0075 13.7817C31.1059 13.6832 31.2044 13.5848 31.3028 13.4864C31.4012 13.3879 31.4997 13.2895 31.6965 13.191C31.795 13.0926 31.8934 12.9942 32.0903 12.8957C32.1887 12.7973 32.3856 12.6989 32.5825 12.6989C32.6809 12.6989 32.7794 12.6004 32.8778 12.6004C33.0747 12.502 33.2716 12.502 33.4684 12.502C33.7637 12.502 33.9606 12.502 34.2559 12.502C34.4528 12.6004 34.7481 12.6004 34.945 12.6989C35.1419 12.7973 35.3388 12.8957 35.4372 12.9942C35.7325 13.191 35.9294 13.4864 36.2247 13.7817C36.3231 13.9785 36.52 14.077 36.6184 14.1754C36.6184 14.2739 36.7169 14.3723 36.7169 14.3723C36.8153 14.5692 37.1106 14.6676 37.3075 14.5692C37.5044 14.4707 37.5044 14.2739 37.5044 14.077C37.5044 13.9785 37.5044 13.9785 37.4059 13.8801C37.4059 13.7817 37.4059 13.6832 37.4059 13.6832C37.4059 13.5848 37.4059 13.4864 37.4059 13.4864C37.4059 13.3879 37.3075 13.2895 37.3075 13.191C37.2091 12.9942 37.2091 12.8957 37.1106 12.7973C37.0122 12.6989 36.9138 12.502 36.8153 12.4035C36.6184 12.1082 36.3231 11.9114 35.9294 11.7145C35.7325 11.616 35.6341 11.5176 35.4372 11.5176C35.1419 11.4192 34.8466 11.3207 34.6497 11.3207C34.3544 11.3207 34.0591 11.2223 33.7637 11.3207C33.7637 11.2223 33.6653 11.2223 33.6653 11.1239C33.5669 10.927 33.4684 10.6317 33.4684 10.4348C33.4684 10.1395 33.4684 9.84416 33.4684 9.54885C33.5669 9.1551 33.6653 8.85978 33.7637 8.56447C33.8622 8.26916 34.0591 7.97384 34.2559 7.67853C34.4528 7.48165 34.6497 7.28478 34.8466 7.0879C35.1419 6.89103 35.4372 6.69415 35.7325 6.59571C36.0278 6.49728 36.2247 6.39884 36.52 6.39884C36.9138 6.39884 37.2091 6.39884 37.6028 6.39884C37.7013 6.39884 37.7997 6.39884 37.8981 6.39884C37.9966 6.39884 38.1934 6.49728 38.2919 6.49728C38.4888 6.59571 38.6856 6.59571 38.8825 6.69415C39.0794 6.79259 39.3747 6.89103 39.5716 6.98947C39.7684 7.0879 39.9653 7.18634 40.0638 7.38322C40.3591 7.58009 40.556 7.77697 40.8513 8.07228C41.1466 8.26916 41.5403 8.26916 41.7372 8.07228C41.9341 7.87541 42.0325 7.38322 41.7372 7.18634C41.4419 6.89103 41.0481 6.59571 40.6544 6.3004C40.6544 6.3004 40.556 6.3004 40.556 6.20196C40.4575 5.90665 40.556 5.90665 40.556 5.80821C40.6544 5.70977 40.8513 5.61134 40.9497 5.5129C41.1466 5.41446 41.3435 5.21758 41.5403 5.11915C41.7372 4.92227 42.0325 4.92227 42.2294 4.82383C42.4263 4.7254 42.6231 4.7254 42.82 4.62696C43.0169 4.52852 43.2138 4.52852 43.4106 4.52852C43.4106 4.52852 43.4106 4.52852 43.5091 4.52852C43.6075 4.52852 43.706 4.52852 43.8044 4.52852C44.0013 4.52852 44.1982 4.52852 44.395 4.52852C44.4935 4.52852 44.5919 4.52852 44.5919 4.52852C44.7888 4.52852 44.9857 4.62696 45.1825 4.7254C45.281 4.82383 45.3794 4.82383 45.4778 4.92227C45.5763 4.92227 45.6747 5.02071 45.8716 5.11915C46.0685 5.31602 46.2653 5.41446 46.3638 5.61134C46.4622 5.70977 46.5607 5.90665 46.6591 6.00509C46.7575 6.10352 46.856 6.3004 46.856 6.39884C46.9544 6.59571 47.0528 6.89103 47.1513 7.0879C47.2497 7.48165 47.3482 7.8754 47.4466 8.26916C47.4466 8.26916 47.4466 8.26916 47.4466 8.36759C47.4466 8.36759 47.4466 8.36759 47.4466 8.46603C47.2497 8.76135 47.0528 8.95822 46.9544 9.25353C46.856 9.54885 46.7575 9.74572 46.6591 10.041C46.5607 10.2379 46.6591 10.4348 46.7575 10.5332C46.856 10.6317 46.9544 10.8285 47.1513 10.8285C47.3482 10.8285 47.545 10.8285 47.6435 10.7301C47.8404 10.6317 47.8403 10.5332 47.9388 10.3364C47.9388 10.2379 48.0372 10.1395 48.0372 10.041C48.2341 9.64729 48.431 9.35197 48.6279 9.05666C48.7263 8.95822 48.7263 8.85978 48.8247 8.76135C49.0216 8.56447 49.12 8.46603 49.3169 8.26916C49.4154 8.17072 49.5138 8.07228 49.7107 8.07228C49.8091 7.97384 49.9075 7.97384 50.1044 7.87541C50.006 7.97384 50.2029 7.87541 50.3013 7.87541C50.3997 7.87541 50.5966 7.77697 50.695 7.77697C50.7935 7.77697 50.9904 7.77697 51.0888 7.77697C51.2857 7.77697 51.3841 7.77697 51.581 7.77697C51.6794 7.77697 51.7779 7.77697 51.8763 7.87541C51.9747 7.87541 52.0732 7.97384 52.2701 7.97384C52.4669 8.07228 52.6638 8.17072 52.7622 8.26916C52.8607 8.36759 52.9591 8.36759 53.0576 8.46603C53.156 8.56447 53.2544 8.66291 53.3529 8.76135C53.4513 8.85978 53.5497 8.95822 53.5497 9.05666C53.6482 9.25353 53.7466 9.45041 53.9435 9.74572C54.0419 9.9426 54.1404 10.2379 54.2388 10.4348C54.3372 10.7301 54.3372 11.0254 54.4357 11.2223C54.5341 11.9114 54.5341 12.6989 54.4357 13.3879C54.4357 13.6832 54.3372 13.9785 54.2388 14.2739C54.1404 14.6676 54.0419 14.9629 53.8451 15.3567C53.7466 15.652 53.6482 15.8489 53.4513 16.0457C53.3529 16.2426 53.2544 16.3411 53.156 16.5379C52.9591 16.8332 52.8607 17.0301 52.6638 17.227L52.7622 17.1286C52.5654 17.3254 52.4669 17.5223 52.2701 17.7192C52.1716 17.8176 52.0732 17.9161 51.9747 18.0145C51.8763 18.1129 51.7779 18.2114 51.6794 18.3098C51.581 18.4083 51.4825 18.5067 51.3841 18.6051C51.2857 18.7036 51.1872 18.802 51.0888 18.9004C51.0888 18.9004 50.9904 18.9989 50.8919 18.9989C51.1872 18.5067 51.4825 18.0145 51.7779 17.5223C51.8763 17.3254 51.8763 17.0301 51.6794 16.9317C51.581 16.9317 51.4825 16.8332 51.4825 16.8332C51.3841 16.8332 51.1872 16.9317 51.0888 17.0301C50.7935 17.5223 50.4982 18.0145 50.2029 18.5067C50.006 18.802 49.9075 18.9989 49.7107 19.2942C49.6122 19.4911 49.5138 19.5895 49.4154 19.7864C49.4154 19.8848 49.3169 19.9833 49.4154 20.0817C49.3169 20.1801 49.2185 20.1801 49.12 20.2786C48.9232 20.4754 48.6279 20.5739 48.3325 20.6723C48.1357 20.7708 47.8404 20.8692 47.6435 20.9676C48.0372 20.4754 48.431 19.9833 48.8247 19.4911C48.9232 19.3926 48.9232 19.2942 48.9232 19.1958C48.9232 19.0973 48.8247 18.9989 48.7263 18.9004C48.6279 18.9004 48.5294 18.802 48.5294 18.802H48.431C48.3325 18.802 48.2341 18.9004 48.1357 18.9989C47.545 19.6879 47.0528 20.377 46.4622 21.0661C46.3638 21.1645 46.3638 21.1645 46.2653 21.2629C46.1669 21.3614 46.1669 21.4598 46.2653 21.5583C45.7732 21.7551 45.1825 21.952 44.6903 22.0504C44.8872 21.7551 45.1825 21.4598 45.3794 21.1645C45.4778 21.0661 45.4778 20.9676 45.4778 20.8692C45.4778 20.7708 45.4778 20.6723 45.3794 20.5739C45.281 20.4754 45.1825 20.4754 45.0841 20.4754C44.9857 20.4754 44.8872 20.4754 44.7888 20.5739C44.4935 20.9676 44.1982 21.2629 43.9028 21.6567C43.706 21.8536 43.6075 21.952 43.5091 22.1489C43.4106 22.2473 43.4107 22.3458 43.3122 22.4442C43.2138 22.4442 43.2138 22.4442 43.1153 22.4442C42.6231 22.5426 42.2294 22.6411 41.7372 22.7395C41.4419 22.7395 41.245 22.838 40.9497 22.838C41.245 22.5426 41.5403 22.3458 41.8356 22.0504C42.0325 21.8536 42.0325 21.5583 41.8356 21.4598C41.7372 21.3614 41.6388 21.3614 41.5403 21.3614C41.4419 21.3614 41.3435 21.3614 41.245 21.4598C40.8513 21.7551 40.556 22.0504 40.2606 22.3458C40.0638 22.4442 39.9653 22.6411 39.7684 22.7395C39.67 22.838 39.67 22.8379 39.5716 22.9364C39.4731 22.9364 39.3747 22.9364 39.1778 22.9364C38.9809 22.9364 38.6856 22.9364 38.4888 22.9364C38.2919 22.9364 38.095 22.9364 37.8981 22.9364C37.7013 22.9364 37.5044 22.9364 37.4059 22.9364C37.9966 22.5426 38.4888 22.0504 39.0794 21.6567C39.1778 21.5583 39.1778 21.4598 39.1778 21.3614C39.1778 21.2629 39.1778 21.1645 39.0794 21.0661C38.9809 20.9676 38.8825 20.9676 38.7841 20.9676C38.6856 20.9676 38.5872 20.9676 38.4888 21.0661C38.095 21.3614 37.7013 21.6567 37.2091 22.0504C36.9138 22.2473 36.7169 22.4442 36.4216 22.6411C36.3231 22.6411 36.3231 22.7395 36.3231 22.838C36.2247 22.838 36.1263 22.838 36.0278 22.838C35.7325 22.838 35.5356 22.7395 35.2403 22.6411C34.945 22.5426 34.5512 22.4442 34.2559 22.3458C34.3544 22.2473 34.5512 22.1489 34.6497 22.0504C35.2403 21.6567 35.7325 21.2629 36.3231 20.8692C36.4216 20.7708 36.4216 20.6723 36.4216 20.5739C36.4216 20.4754 36.4216 20.377 36.3231 20.2786C36.2247 20.1801 36.1263 20.1801 36.0278 20.1801C35.9294 20.1801 35.8309 20.2786 35.7325 20.2786C35.3387 20.5739 34.945 20.8692 34.4528 21.2629C34.2559 21.3614 34.1575 21.5583 33.9606 21.6567C33.8622 21.7551 33.7637 21.8536 33.6653 21.8536L33.5669 21.952C33.5669 21.952 33.5669 22.0504 33.4684 22.1489C33.37 22.1489 33.37 22.0504 33.2716 22.0504C33.0747 21.952 32.8778 21.8536 32.6809 21.7551C32.4841 21.6567 32.2872 21.5583 32.1887 21.3614C32.3856 21.1645 32.6809 20.9676 32.8778 20.7708C33.37 20.377 33.7637 19.9833 34.2559 19.5895C34.4528 19.4911 34.4528 19.1958 34.2559 18.9989C34.1575 18.9004 34.0591 18.9004 33.9606 18.9004C33.8622 18.9004 33.7637 18.9004 33.6653 18.9989C33.1731 19.3926 32.6809 19.7864 32.2872 20.1801C32.0903 20.377 31.795 20.5739 31.5981 20.8692C31.4997 20.377 31.3028 20.1801 31.1059 19.9833C31.2044 20.0817 31.2044 20.0817 31.2044 20.0817C31.1059 19.9833 31.1059 19.9833 31.1059 19.9833ZM33.37 23.0348C33.2716 23.0348 33.2716 22.9364 33.2716 22.9364C33.37 23.0348 33.37 23.0348 33.37 23.0348ZM12.009 18.3098C12.009 18.2114 12.009 18.2114 12.009 18.3098V18.3098ZM45.5763 32.288C45.5763 32.0911 45.4778 31.7958 45.4778 31.5989C45.4778 31.3036 45.3794 31.1067 45.3794 30.8114C45.281 30.5161 45.281 30.3192 45.1825 30.0239C45.1825 29.827 45.1825 29.7286 45.0841 29.5317C44.9857 29.3348 44.8872 29.2364 44.6903 29.2364H44.5919C44.395 29.3348 44.1982 29.5317 44.2966 29.7286C44.2966 29.827 44.2966 29.9255 44.395 30.0239C44.395 30.4177 44.395 30.8114 44.395 31.2052C44.395 31.5989 44.395 31.9927 44.4935 32.3864C44.5919 33.2724 44.5919 34.0599 44.6903 34.9458C44.7888 35.8317 44.7888 36.6192 44.8872 37.5052C44.8872 38.3911 44.9857 39.1786 44.8872 40.0646C44.8872 40.3599 44.7888 40.6552 44.6903 40.9505C44.5919 41.1474 44.4935 41.2458 44.395 41.4427C44.2966 41.6396 44.0997 41.738 43.9028 41.9349C43.706 42.1318 43.5091 42.2302 43.3122 42.3286C43.1153 42.4271 42.9185 42.5255 42.7216 42.6239C42.131 42.8208 41.6388 43.0177 41.0481 43.1161C40.4575 43.2146 39.7685 43.4115 39.1778 43.5099C38.6856 43.6083 38.1934 43.6083 37.7013 43.7068C37.1106 43.7068 36.6184 43.8052 36.0278 43.8052C35.5356 43.8052 34.945 43.8052 34.4528 43.9036C34.1575 43.9036 33.9606 43.9036 33.6653 44.0021C33.37 44.0021 33.0747 44.1005 32.7794 44.1005C33.2716 43.5099 33.7637 43.0177 34.2559 42.5255C34.5512 42.2302 34.8466 42.0333 35.0434 41.738C35.1419 41.6396 35.3388 41.4427 35.4372 41.3443C35.5356 41.2458 35.6341 41.0489 35.7325 40.9505C35.9294 40.8521 35.9294 40.5568 35.8309 40.3599C35.7325 40.2614 35.6341 40.163 35.4372 40.163C35.3388 40.163 35.3387 40.163 35.2403 40.2614C35.1419 40.2614 35.1419 40.3599 35.0434 40.3599C34.945 40.4583 34.7481 40.4583 34.6497 40.5568C34.4528 40.6552 34.3544 40.8521 34.1575 40.9505C33.8622 41.1474 33.5669 41.4427 33.2716 41.738C32.6809 42.3286 31.9919 42.8208 31.4012 43.4114C31.3028 43.5099 31.2044 43.7068 31.0075 43.8052C30.8106 44.1005 30.5153 44.3958 30.5153 44.7896C30.5153 44.9865 30.5153 45.0849 30.6137 45.2818C30.6137 45.3802 30.6137 45.3802 30.7122 45.4786C30.8106 45.5771 30.8106 45.6755 30.909 45.774C31.1059 45.8724 31.2044 45.9708 31.4012 46.1677C31.5981 46.2662 31.6966 46.3646 31.8934 46.463C32.7794 46.8568 33.5669 47.2505 34.4528 47.6443C34.5512 47.7427 34.7481 47.6443 34.8466 47.5458C34.945 47.4474 35.0434 47.349 35.1419 47.2505C35.1419 47.1521 35.1419 46.9552 35.0434 46.8568C34.945 46.7583 34.8466 46.6599 34.7481 46.6599C34.6497 46.5615 34.4528 46.5615 34.3544 46.463H34.4528C34.0591 46.2661 33.6653 46.1677 33.37 45.9708C33.0747 45.774 32.7794 45.6755 32.4841 45.4786C33.37 45.3802 34.2559 45.3802 35.1419 45.2818C36.0278 45.2818 36.8153 45.1833 37.7013 45.0849C38.5872 44.9865 39.4731 44.888 40.3591 44.6911C40.7528 44.5927 41.1466 44.4943 41.5403 44.3958C41.7372 44.2974 41.9341 44.2974 42.2294 44.199C42.4263 44.1005 42.6231 44.0021 42.82 44.0021C43.3122 43.8052 43.706 43.6083 44.0997 43.4114C44.5919 43.2146 44.9857 42.8208 45.281 42.5255C45.4778 42.3286 45.5763 42.2302 45.6747 42.0333C45.7732 41.8364 45.8716 41.6396 45.97 41.4427C46.0685 41.0489 46.1669 40.5568 46.1669 40.0646C46.1669 39.1786 46.0685 38.2927 46.0685 37.5052C45.97 35.6349 45.7732 33.9614 45.5763 32.288ZM25.0028 7.67853C24.8059 7.38322 24.5106 7.0879 24.2153 6.79259C24.0184 6.49728 23.7231 6.3004 23.4278 6.00509C23.3293 5.90665 23.2309 5.80821 23.1325 5.70977C23.034 5.61134 23.034 5.61134 22.9356 5.61134C22.8371 5.61134 22.8371 5.5129 22.7387 5.5129C22.7387 5.5129 22.7387 5.5129 22.6403 5.5129C22.5418 5.5129 22.5418 5.41446 22.4434 5.41446C22.345 5.41446 22.1481 5.5129 22.0496 5.61134C21.9512 5.80821 21.9512 6.00509 22.1481 6.20196C22.2465 6.49728 22.5418 6.59571 22.7387 6.79259C22.9356 6.98947 23.1325 7.28478 23.3293 7.48165C23.4278 7.67853 23.5262 7.87541 23.7231 7.97384C22.1481 7.77697 20.4746 7.67853 18.8012 7.58009C18.5059 7.58009 18.2106 7.58009 17.9153 7.58009C17.4231 7.58009 16.9309 7.58009 16.4387 7.58009C15.6512 7.58009 14.7652 7.67853 13.9777 7.67853C13.584 7.67853 13.1902 7.77697 12.7965 7.77697C12.5012 7.77697 12.2059 7.87541 11.9106 7.87541C11.7137 7.87541 11.5168 7.97384 11.3199 7.97384C11.2215 7.97384 11.1231 8.07228 11.0246 8.07228C10.9262 8.07228 10.7293 8.17072 10.6309 8.26916C10.5324 8.26916 10.5324 8.36759 10.434 8.36759C10.434 8.66291 10.3355 8.76135 10.3355 8.85978C10.2371 9.05666 10.1387 9.25354 10.1387 9.45041C10.1387 9.74572 10.1387 10.041 10.1387 10.3364C10.1387 10.7301 10.1387 11.2223 10.1387 11.616C10.1387 12.4035 10.1387 13.191 10.2371 13.9785C10.2371 14.8645 10.434 15.7504 10.5324 16.6364C10.5324 16.9317 10.6309 17.1286 10.7293 17.4239C10.8277 17.7192 11.0246 18.0145 11.123 18.3098C11.123 18.4083 11.2215 18.5067 11.2215 18.6051C11.3199 18.802 11.6152 18.9004 11.8121 18.802C12.009 18.7036 12.1074 18.4083 12.009 18.2114C12.009 18.2114 12.009 18.1129 11.9106 18.1129C11.9106 17.8176 11.9106 17.4239 11.8121 17.1286C11.8121 16.8332 11.7137 16.5379 11.7137 16.2426C11.6152 15.1598 11.5168 14.077 11.5168 12.9942C11.5168 11.9114 11.4184 10.8285 11.6152 9.74572C11.6152 9.64729 11.6152 9.64729 11.6152 9.54885C11.6152 9.54885 11.6152 9.54885 11.6152 9.45041C11.6152 9.45041 11.6152 9.45041 11.7137 9.35197C11.8121 9.25353 11.9106 9.25353 12.009 9.1551C12.5012 8.95822 13.0918 8.85978 13.584 8.76135H13.4856C17.0293 8.36759 20.6715 8.66291 24.1168 9.05666C24.2153 9.05666 24.3137 9.05666 24.4122 8.95822C24.4122 8.95822 24.4122 9.05666 24.3137 9.05666C23.92 9.45041 23.5262 9.84416 23.034 10.2379C22.5418 10.5332 22.1481 10.927 21.6559 11.2223C21.5575 11.3207 21.459 11.4192 21.459 11.5176C21.459 11.616 21.459 11.7145 21.459 11.9114C21.5575 12.1082 21.8528 12.2067 22.0496 12.1082C22.4434 11.8129 22.7387 11.616 23.1325 11.3207C23.4278 11.1239 23.8215 10.8285 24.1168 10.6317C24.4122 10.4348 24.8059 10.1395 25.1012 9.9426C25.2981 9.74572 25.5934 9.54885 25.6918 9.25353C25.7903 8.95822 25.6918 8.66291 25.495 8.36759C25.495 8.17072 25.1997 7.97384 25.0028 7.67853Z" fill="black"/>
</svg>
