<svg width="65" height="63" viewBox="0 0 65 63" fill="none" xmlns="http://www.w3.org/2000/svg">
<path d="M47.4751 3.40588C47.5752 3.40588 47.6754 3.40588 47.7755 3.40588C47.9759 3.50604 48.1762 3.50604 48.2763 3.50604C48.5768 3.6062 48.8773 3.70636 49.1778 3.80651C49.3781 3.90667 49.5784 4.00683 49.6785 4.10699C49.8789 4.20715 49.979 4.30731 50.1793 4.50762C50.2795 4.60778 50.3797 4.70794 50.4798 4.8081C50.58 5.00841 50.7803 5.10857 50.8804 5.30889C51.0808 5.50921 51.1809 5.70952 51.3812 6.01C51.4814 6.21031 51.5816 6.51079 51.6817 6.71111C51.882 7.11174 51.9822 7.51237 52.0823 7.91301C52.1825 8.4138 52.2827 8.91459 52.3828 9.51554C52.3828 9.81602 52.7835 10.0163 53.0839 9.91617C53.1841 9.91617 53.3844 9.81602 53.3844 9.71586C53.4846 9.6157 53.4846 9.41538 53.4846 9.31522C53.3844 8.51396 53.1841 7.71269 52.8836 6.91142C52.5831 6.21031 52.3828 5.50921 51.882 4.90826C51.7819 4.8081 51.6817 4.60778 51.5816 4.50762C51.4814 4.30731 51.2811 4.20715 51.1809 4.00683C51.0808 3.70636 50.7803 3.50604 50.58 3.30572C50.1793 3.00525 49.6785 2.80493 49.1778 2.60461C48.9774 2.50446 48.5768 2.50446 48.2763 2.4043C48.076 2.4043 47.9759 2.4043 47.7755 2.4043C47.6754 2.4043 47.5752 2.4043 47.5752 2.4043C47.2747 2.4043 47.0744 2.60461 47.0744 2.90509C46.9743 3.20556 47.2747 3.40588 47.4751 3.40588ZM63.4002 34.455C63.1999 34.0543 63.0998 33.5535 62.8994 33.1529C62.6991 32.7523 62.4988 32.4518 62.2985 32.1513C62.2985 32.0512 62.1983 32.0512 62.1983 31.951C62.0982 31.7507 61.8979 31.6505 61.7977 31.5504C61.5974 31.3501 61.1968 31.1497 60.8963 30.9494C60.5958 30.8493 60.3955 30.7491 60.095 30.649C59.7945 30.5488 59.5942 30.5488 59.2937 30.5488C59.1936 30.5488 58.9933 30.5488 58.8931 30.5488C58.5926 30.5488 58.2922 30.5488 57.8915 30.649C57.5911 30.649 57.2906 30.7491 56.9901 30.9494C56.8899 30.9494 56.7898 30.9494 56.7898 31.0496C56.5895 31.1497 56.4893 31.4502 56.5895 31.7507C56.6896 31.951 56.9901 32.0512 57.2906 31.951C57.3907 31.951 57.4909 31.951 57.6912 31.8509C57.9917 31.8509 58.192 31.7507 58.4925 31.7507C58.6928 31.7507 58.793 31.7507 58.9933 31.7507C59.1936 31.7507 59.3939 31.7507 59.5942 31.8509C59.7945 31.8509 59.8947 31.951 60.095 31.951C60.2953 31.951 60.4956 32.0512 60.696 32.1513C60.8963 32.2515 60.9964 32.3516 61.1968 32.4518C61.2969 32.552 61.4972 32.7523 61.5974 32.9526C61.998 33.5535 62.2985 34.2547 62.599 35.0559C62.6991 35.3564 62.7993 35.6569 62.8994 35.9573C62.9996 36.4581 63.1999 37.0591 63.3001 37.5599C63.4002 37.8604 63.7007 38.0607 63.901 37.9605C64.2015 37.8604 64.3017 37.5599 64.3017 37.3596C63.901 36.358 63.7007 35.3564 63.4002 34.455ZM2.50396 47.1751C2.20348 46.0733 1.90301 44.8714 1.70269 43.7697C1.60253 43.2689 1.50238 42.7681 1.30206 42.2673C1.2019 41.9668 1.2019 41.6664 1.10174 41.4661C1.10174 41.2657 1.00158 41.1656 1.00158 40.9653C1.00158 40.6648 0.701109 40.5646 0.500792 40.5646H0.400633C0.300475 40.5646 0.200317 40.6648 0.100158 40.7649C2.23871e-08 40.9653 0 41.0654 0 41.1656C0 41.3659 2.23871e-08 41.4661 0.100158 41.6664C0.100158 41.9668 0.200317 42.2673 0.300475 42.5678C0.400633 43.0686 0.500792 43.5694 0.701109 44.0702C1.00158 45.1719 1.2019 46.3738 1.50238 47.4756C1.60253 47.776 1.90301 47.9763 2.20348 47.8762C2.4038 47.8762 2.60412 47.4756 2.50396 47.1751ZM15.1239 16.5266C15.2241 16.9273 15.3242 17.2277 15.5245 17.5282C15.6247 17.8287 16.0253 17.9288 16.3258 17.7285C16.426 17.6284 16.5261 17.5282 16.6263 17.4281C16.6263 17.2277 16.6263 17.1276 16.6263 17.0274V16.9273C16.5261 16.7269 16.426 16.5266 16.426 16.2262C16.3258 16.0258 16.3258 15.8255 16.3258 15.6252C16.3258 15.2246 16.3258 14.8239 16.426 14.4233C16.5261 14.1228 16.5261 13.8224 16.6263 13.5219C16.7264 13.2214 16.8266 12.9209 16.9268 12.6205C17.1271 12.1197 17.4276 11.719 17.6279 11.3184C17.9283 10.9178 18.1287 10.5171 18.4291 10.1165L18.5293 10.0163C18.5293 10.0163 18.4291 10.0163 18.4291 10.1165C18.5293 10.0163 18.6295 9.91617 18.6295 9.81602C18.6295 9.71586 18.6295 9.51554 18.6295 9.41538C18.5293 9.21506 18.329 9.11491 18.1287 9.11491C18.0285 9.11491 17.9283 9.11491 17.9283 9.21507C17.8282 9.31522 17.728 9.41538 17.6279 9.51554C17.5277 9.6157 17.4276 9.71586 17.3274 9.81602C17.1271 10.0163 16.9268 10.2166 16.8266 10.5171C16.426 11.1181 16.1255 11.6189 15.825 12.32C15.7249 12.6204 15.6247 12.9209 15.4244 13.2214C15.3242 13.5219 15.2241 13.8224 15.2241 14.1228C15.1239 14.6236 15.0238 15.2246 15.1239 15.7254C15.0238 16.0258 15.0238 16.2262 15.1239 16.5266ZM62.9996 58.1925C62.8994 58.1925 62.8994 58.1925 62.7993 58.1925C62.599 58.1925 62.2985 58.3928 62.2985 58.5931C62.0982 59.0939 61.8979 59.5947 61.6975 60.0955C61.6975 60.1957 61.5974 60.2958 61.5974 60.2958C61.4972 60.4961 61.3971 60.6965 61.1968 60.8968C61.0966 60.9969 60.9964 61.0971 60.8963 61.1973C60.7961 61.2974 60.5958 61.3976 60.4957 61.3976C60.095 61.4977 59.7945 61.5979 59.3939 61.698C58.9933 61.7982 58.5926 61.7982 58.2922 61.7982C57.6912 61.7982 57.1904 61.8984 56.5895 61.8984C56.289 61.8984 55.9885 61.8984 55.5879 61.8984C55.3876 61.8984 55.0871 61.8984 54.8868 61.8984C54.5863 61.8984 54.386 62.0987 54.386 62.3992C54.386 62.6996 54.5863 62.8999 54.8868 62.8999C55.0871 62.8999 55.3876 63.0001 55.5879 63.0001C55.9885 63.0001 56.3892 63.0001 56.7898 63.0001C57.5911 63.0001 58.3923 62.8999 59.0934 62.7998C59.4941 62.7998 59.8947 62.6996 60.2953 62.5995C60.3955 62.5995 60.4957 62.5995 60.4957 62.4993C60.696 62.4993 60.7961 62.3992 60.9964 62.299C61.1968 62.1988 61.3971 62.0987 61.4972 61.9985C61.6976 61.8984 61.8979 61.698 62.0982 61.4977C62.4988 61.0971 62.6991 60.4961 62.9996 59.9954C63.1999 59.5947 63.3001 59.0939 63.5004 58.6933C63.5004 58.5931 63.3001 58.2927 62.9996 58.1925Z" fill="black"/>
<path d="M57.9916 59.6944C58.6927 59.6944 59.5941 59.7945 60.1951 59.3939C60.6958 59.0934 60.796 58.4925 60.9963 58.0918C61.0965 57.5911 61.1966 57.0903 61.1966 56.5895C61.2968 55.5879 61.2968 54.6865 61.2968 53.6849C61.2968 52.483 61.397 51.2811 61.1966 50.0792C61.1966 49.8789 60.9963 49.6785 60.8962 49.4782C60.796 49.2779 60.5957 49.0776 60.3954 49.0776C60.1951 48.9774 59.9947 48.8773 59.7944 48.8773C59.5941 48.8773 59.3938 48.8773 59.1935 48.8773C58.6927 48.8773 58.1919 48.9774 57.6911 48.9774C57.3906 48.9774 57.0901 48.9774 56.6895 49.0776C56.6895 48.677 56.5894 48.1762 56.5894 47.7755C56.4892 47.2747 56.389 46.774 56.0886 46.2732C56.0886 46.2732 56.0886 46.2732 56.0886 46.173C56.4892 46.173 56.8898 46.0728 57.2905 46.0728C57.7913 45.9727 58.292 45.9727 58.893 45.8725C59.0933 45.8725 59.2936 45.7724 59.4939 45.7724C59.6943 45.7724 59.9947 45.6722 60.1951 45.5721C60.5957 45.4719 60.8962 45.2716 61.1966 45.1714C61.5973 44.9711 61.7976 44.4703 61.8978 44.0697C61.9979 43.8694 61.9979 43.669 61.9979 43.4687C61.9979 43.3686 61.9979 43.2684 61.9979 43.0681C61.9979 42.5673 61.9979 42.1667 61.9979 41.6659C61.9979 40.6643 61.8978 39.6627 61.7976 38.561C61.7976 38.0602 61.6974 37.4592 61.5973 36.9584C61.5973 36.8583 61.4971 36.7581 61.4971 36.5578C61.397 36.3575 61.397 36.1572 61.2968 36.057C61.2968 35.9569 61.1966 35.8567 61.0965 35.7565C60.9963 35.6564 60.8962 35.4561 60.796 35.3559C60.6959 35.3559 60.6959 35.2557 60.5957 35.2557C60.3954 35.1556 60.2952 35.0554 60.0949 34.9553C59.7944 34.5546 59.4939 34.5546 59.0933 34.4545H58.9932C58.6927 34.4545 58.4924 34.4545 58.1919 34.5546C57.9916 34.5546 57.7913 34.5546 57.5909 34.6548C56.99 34.6548 56.4892 34.7549 55.8882 34.8551C54.8867 34.9553 53.8851 35.0554 52.8835 35.1556C52.0822 35.2557 51.281 35.3559 50.4797 35.4561C50.4797 35.4561 50.5799 35.4561 50.5799 35.3559C50.7802 35.1556 50.8803 34.9553 50.8803 34.755C50.7802 33.7534 50.68 32.8519 50.5799 31.8504C50.4797 31.3496 50.4797 30.9489 50.3795 30.4481C50.3795 30.1477 50.2794 29.9473 50.2794 29.6469C50.2794 29.5467 50.2794 29.4466 50.2794 29.3464C50.2794 29.0459 50.1792 28.7454 50.0791 28.5451C49.8787 28.2447 49.6784 27.9442 49.378 27.844C49.0775 27.6437 48.777 27.6437 48.3764 27.6437C48.1761 27.6437 47.9757 27.6437 47.6753 27.6437C47.4749 27.6437 47.1745 27.6437 46.9742 27.6437C45.9726 27.6437 44.971 27.7439 43.9694 27.844C42.9678 27.9442 41.9662 28.0443 40.8645 28.0443C39.7628 28.1445 38.7612 28.2447 37.6594 28.2447C36.6578 28.2447 35.7564 28.2447 34.7548 28.3448C34.7548 28.2447 34.7548 28.1445 34.7548 28.1445C34.6547 27.2431 34.5545 26.3416 34.5545 25.4402C34.5545 25.0396 34.4544 24.5388 34.4544 24.1382C34.4544 23.9378 34.3542 23.6374 34.3542 23.4371C34.3542 23.2367 34.254 23.1366 34.1539 22.9363V22.8361C34.1539 22.8361 34.1539 22.7359 34.0537 22.7359C34.4544 22.7359 34.855 22.7359 35.2556 22.7359C36.2572 22.7359 37.2588 22.6358 38.3605 22.5356C39.1618 22.4355 39.9631 22.3353 40.7643 22.135C41.5656 22.0348 42.2667 21.8345 42.9678 21.6342C43.3685 21.534 43.7691 21.4339 44.1697 21.2336C44.5704 21.1334 44.971 20.9331 45.3716 20.7328C46.273 20.3321 47.0743 19.7312 47.7754 19.1302C48.1761 18.7296 48.4765 18.329 48.8772 17.9283C49.1776 17.5277 49.4781 17.0269 49.6784 16.5261C49.8787 16.1255 49.9789 15.6247 50.0791 15.2241C50.1792 14.7233 50.2794 14.2225 50.2794 13.6215C50.2794 13.1207 50.2794 12.5198 50.1792 12.019C50.0791 11.6184 50.0791 11.2177 49.8787 10.8171C49.7786 10.4165 49.5783 10.0158 49.4781 9.6152C49.2778 9.21457 49.1776 8.91409 48.9773 8.51346C48.6768 8.01267 48.2762 7.41172 47.7754 7.01109C47.4749 6.71061 47.1745 6.51029 46.874 6.30998C46.5735 6.10966 46.1729 6.0095 45.8724 5.90934C45.4718 5.80919 45.0711 5.70903 44.7707 5.70903C44.6705 5.70903 44.6705 5.70903 44.5704 5.70903C44.4702 5.70903 44.4702 5.70903 44.37 5.70903C44.1697 5.50871 44.1697 5.40855 44.0696 5.30839C43.9694 5.00792 43.7691 4.70744 43.5688 4.50713C43.1681 3.90618 42.6673 3.40538 42.1666 2.90459C41.8661 2.60412 41.6658 2.4038 41.3653 2.20348C41.2651 2.10333 41.165 2.00317 40.9647 1.90301C40.7643 1.80285 40.6642 1.60253 40.4639 1.50238C40.1634 1.30206 39.8629 1.10174 39.5624 1.00158C38.9615 0.60095 38.2604 0.400633 37.4591 0.200317C37.0585 0.100158 36.758 0.100158 36.3574 0C36.1571 0 36.0569 0 35.8566 0C35.5561 0 35.3558 0 35.0553 0C34.254 0.100158 33.4528 0.300475 32.7517 0.60095C32.0506 0.901425 31.4496 1.2019 30.8487 1.70269C30.5482 1.90301 30.2477 2.20348 29.9472 2.50396C29.7469 2.70428 29.5466 3.00475 29.3463 3.30523C29.146 3.50554 29.0458 3.80602 28.9457 4.00633C28.8455 4.00633 28.8455 3.90618 28.7453 3.90618C28.545 3.80602 28.3447 3.80602 28.1444 3.70586C27.9441 3.70586 27.7437 3.6057 27.5434 3.6057C27.3431 3.50554 27.0426 3.50554 26.7422 3.50554C26.5419 3.50554 26.4417 3.50554 26.2414 3.50554C26.0411 3.50554 25.8407 3.50554 25.6404 3.50554C25.4401 3.50554 25.3399 3.6057 25.1396 3.6057C24.6388 3.70586 24.2382 3.90618 23.7374 4.10649C23.0363 4.40697 22.5355 4.8076 22.0347 5.40855C21.5339 6.0095 21.2335 6.71061 21.0331 7.41172C20.7327 8.21299 20.6325 9.01425 20.7327 9.81552C20.7327 10.2162 20.8328 10.5166 20.933 10.9173C20.933 11.0174 21.0331 11.1176 21.0331 11.2177C20.5323 11.3179 20.1317 11.5182 19.7311 11.7185C19.3304 11.9188 19.03 12.2193 18.7295 12.62C18.429 12.9204 18.2287 13.3211 18.0284 13.7217C17.9282 13.922 17.9282 14.2225 17.8281 14.4228C17.8281 14.6231 17.8281 14.9236 17.7279 15.1239C17.7279 15.3242 17.7279 15.6247 17.8281 15.825C17.8281 16.1255 18.0284 16.5261 18.1285 16.8266C18.3289 17.1271 18.429 17.4276 18.6293 17.6279C18.8297 17.8282 19.03 18.0285 19.2303 18.329C19.7311 18.8298 20.2319 19.2304 20.8328 19.631C21.3336 20.0317 21.9346 20.3321 22.5355 20.5325C22.7358 20.6326 22.9361 20.7328 23.2366 20.8329C23.4369 20.9331 23.7374 21.0333 24.0379 21.1334C24.3384 21.2336 24.5387 21.3337 24.8392 21.3337C25.1396 21.4339 25.4401 21.534 25.7406 21.534C26.2414 21.6342 26.7422 21.7344 27.243 21.8345C27.7437 21.9347 28.3447 22.0348 28.8455 22.135C29.3463 22.2352 29.9472 22.2352 30.448 22.3353C31.049 22.4355 31.6499 22.4355 32.2509 22.4355C32.5514 22.4355 32.8518 22.4355 33.2525 22.4355L33.1523 22.5356V22.6358C33.0521 22.8361 33.0521 23.0364 33.0521 23.2367C33.0521 23.4371 33.0521 23.6374 32.952 23.8377C32.952 24.3385 32.952 24.7391 32.952 25.2399C32.952 26.1413 33.0521 27.1429 33.2525 28.0443C32.6515 28.0443 31.9504 28.0443 31.3494 28.0443C29.3463 28.0443 27.3431 28.0443 25.3399 28.1445C24.3384 28.1445 23.2366 28.1445 22.235 28.2447C21.2335 28.2447 20.2319 28.3448 19.2303 28.3448C18.2287 28.3448 17.2271 28.445 16.2255 28.5451C16.0252 28.5451 15.7247 28.5451 15.5244 28.6453C15.224 28.6453 15.0236 28.7454 14.7232 28.8456C14.5228 28.9458 14.3225 29.0459 14.2224 29.1461C14.1222 29.2462 14.0221 29.4466 13.9219 29.5467C13.8217 29.747 13.8217 29.9473 13.7216 30.1477C13.7216 30.4481 13.7216 30.7486 13.7216 31.0491C13.8217 31.9505 13.9219 32.8519 14.1222 33.6532C14.2224 34.0538 14.3225 34.5546 14.3225 34.9553C14.3225 35.0554 14.4227 35.2557 14.4227 35.3559C14.0221 35.3559 13.7216 35.3559 13.3209 35.4561C12.3194 35.4561 11.3178 35.4561 10.3162 35.5562C9.8154 35.5562 9.21445 35.6564 8.71366 35.6564C8.31303 35.6564 7.91239 35.7565 7.4116 35.7565C7.21129 35.7565 7.01097 35.9568 6.91081 36.1572C6.41002 36.1572 6.00939 36.2573 5.50859 36.2573C5.30828 36.2573 5.10796 36.3575 4.90764 36.3575C4.80749 36.3575 4.80748 36.3575 4.70733 36.3575C4.50701 36.4576 4.40685 36.4576 4.20653 36.5578C4.10638 36.5578 4.00622 36.658 4.00622 36.7581C3.90606 36.8583 3.8059 36.9584 3.70574 37.0586C3.60558 37.1588 3.50543 37.3591 3.50543 37.4592C3.40527 37.6595 3.40527 37.7597 3.40527 37.96C3.30511 38.561 3.40527 39.1619 3.50543 39.7629C3.50543 40.2637 3.60558 40.7645 3.60558 41.2652C3.70574 42.2668 3.8059 43.3686 4.00622 44.3702C4.10638 44.8709 4.20654 45.4719 4.40685 45.9727C4.60717 46.4735 4.80749 46.9743 5.30828 47.2747C5.50859 47.4751 5.70891 47.5752 5.90923 47.6754C6.2097 47.7755 6.61034 47.8757 6.91081 47.8757H7.01097V47.9759C7.01097 48.076 7.01097 48.2763 6.91081 48.3765C6.91081 48.4766 6.91081 48.677 6.91081 48.7771C6.91081 49.3781 7.01097 49.8789 7.11113 50.4798C7.11113 50.4798 7.11113 50.4798 7.11113 50.58C6.71049 50.6801 6.41002 50.6801 6.00939 50.7803C5.90923 50.7803 5.80907 50.7803 5.70891 50.7803C5.60875 50.7803 5.50859 50.7803 5.40844 50.7803C5.0078 51.0808 4.80749 51.2811 4.90764 51.5816C4.80749 51.5816 4.70733 51.5816 4.60717 51.5816C4.40685 51.5816 4.20654 51.6817 4.00622 51.6817C3.8059 51.6817 3.60559 51.7819 3.30511 51.7819C3.10479 51.7819 3.00463 51.882 2.80432 51.9822C2.604 51.9822 2.50384 52.0823 2.40368 52.1825C2.00305 52.483 1.80273 52.8836 1.80273 53.3844C1.80273 53.6849 1.80273 53.9854 1.90289 54.1857C2.00305 54.6865 2.00305 55.2874 2.10321 55.7882C2.30353 56.7898 2.604 57.7914 2.90448 58.6928C3.10479 59.1936 3.30511 59.6944 3.50543 60.1952C3.60558 60.3955 3.8059 60.5958 3.90606 60.7961C4.10638 60.9964 4.30669 61.1968 4.50701 61.3971C4.60717 61.3971 4.70733 61.4972 4.70733 61.4972C4.90764 61.5974 5.0078 61.5974 5.20812 61.6975C5.50859 61.7977 5.80907 61.8979 6.10954 61.8979C6.61034 61.998 7.11113 61.998 7.61192 61.998C8.11271 61.998 8.6135 61.998 9.11429 61.998C10.216 61.998 11.2176 61.998 12.3194 61.8979C13.3209 61.8979 14.3225 61.8979 15.4243 61.7977C17.6278 61.6975 19.8312 61.6975 22.1349 61.5974C22.6357 61.5974 23.1365 61.5974 23.5371 61.4972C23.9377 61.4972 24.3384 61.3971 24.6388 61.2969C25.2398 61.1968 25.7406 60.8963 26.1412 60.4957C26.5418 59.9949 26.642 59.3939 26.7422 58.8931C26.8423 58.3923 26.8423 57.7914 26.9425 57.2906C27.0426 56.289 27.0426 55.2874 27.0426 54.2858C27.0426 53.785 27.0426 53.2842 27.0426 52.7835C27.0426 52.3828 27.0426 52.0823 26.9425 51.6817C26.9425 51.3812 26.8423 51.0808 26.7422 50.8804C26.642 50.7803 26.642 50.58 26.5418 50.4798C26.4417 50.3797 26.3415 50.2795 26.2414 50.1793C26.1412 50.1793 26.1412 50.0792 26.0411 50.0792C25.9409 49.979 25.7406 49.979 25.5403 49.8789C25.4401 49.8789 25.3399 49.8789 25.3399 49.8789C25.2398 49.8789 25.0395 49.8789 24.9393 49.8789C24.739 49.8789 24.5387 49.8789 24.2382 49.8789C24.0379 49.8789 23.9377 49.8789 23.7374 49.8789C23.3368 49.8789 22.9361 49.8789 22.6357 49.8789C22.5355 49.8789 22.3352 49.8789 22.235 49.8789C22.3352 49.7787 22.4354 49.6785 22.4354 49.4782C22.4354 49.3781 22.4354 49.1778 22.4354 49.0776C22.4354 48.677 22.3352 48.3765 22.235 47.9759C22.235 47.7755 22.1349 47.5752 22.0347 47.2747C22.0347 47.2747 22.0347 47.2747 22.0347 47.1746C22.0347 47.0744 22.0347 47.0744 21.9346 47.0744C22.0347 47.0744 22.0347 47.0744 22.1349 47.0744C23.1365 46.8741 24.1381 46.774 25.1396 46.4735C25.4401 46.3733 25.6404 46.3733 25.9409 46.173C26.0411 46.173 26.1412 46.0728 26.1412 46.0728C26.2414 45.9727 26.3415 45.8725 26.4417 45.7724C26.642 45.6722 26.7422 45.3717 26.7422 45.1714C26.7422 45.0713 26.7422 45.0713 26.8423 44.9711C26.8423 44.7708 26.8423 44.6706 26.9425 44.4703C26.9425 44.27 26.9425 44.0697 26.9425 43.7692C26.9425 43.4687 26.9425 43.1683 26.9425 42.8678C26.9425 41.8662 26.8423 40.8646 26.7422 39.9632C26.642 38.8614 26.5419 37.7597 26.2414 36.658C26.2414 36.5578 26.2414 36.5578 26.1412 36.4576C26.1412 36.3575 26.0411 36.1572 25.9409 36.057C25.8407 35.9569 25.8407 35.8567 25.7406 35.7565C25.6404 35.6564 25.5403 35.4561 25.3399 35.3559C25.2398 35.3559 25.2398 35.2557 25.1396 35.2557C24.9393 35.1556 24.8392 35.0554 24.6388 35.0554C24.3384 34.9553 24.0379 34.9553 23.7374 34.9553C23.6373 34.9553 23.6373 34.9553 23.5371 34.9553C23.3368 34.9553 23.2366 34.9553 23.0363 34.9553C22.7358 34.9553 22.4354 34.9553 22.1349 34.9553C21.0331 35.0554 20.0316 35.0554 18.9298 35.1556C17.7279 35.2557 16.526 35.2557 15.3241 35.3559C15.3241 35.1556 15.3241 34.9553 15.3241 34.755C15.3241 34.2542 15.224 33.8535 15.1238 33.3527C15.0236 32.4513 15.0236 31.4497 15.0236 30.5483V30.4481C15.1238 30.4481 15.1238 30.348 15.224 30.348C16.1254 29.9473 17.127 29.8472 18.1285 29.6469C18.6293 29.5467 19.2303 29.5467 19.7311 29.4466C20.2319 29.4466 20.8328 29.3464 21.3336 29.3464C22.4354 29.3464 23.5371 29.2462 24.6388 29.2462C26.7422 29.2462 28.8455 29.2462 30.9488 29.1461C33.1523 29.1461 35.2556 29.0459 37.4591 29.0459C38.5609 29.0459 39.5624 29.0459 40.6642 29.0459C41.6658 29.0459 42.7675 29.0459 43.7691 29.0459C44.37 29.0459 44.971 29.0459 45.5719 29.0459C46.1729 29.0459 46.7738 29.0459 47.3748 29.1461C47.5751 29.1461 47.6753 29.2462 47.8756 29.2462C47.8756 29.3464 47.9757 29.3464 47.9757 29.4466C48.1761 29.8472 48.1761 30.348 48.2762 30.8488C48.3764 31.3496 48.3764 31.9505 48.3764 32.4513C48.3764 33.1524 48.3764 33.7534 48.3764 34.4545C48.3764 34.8551 48.5767 35.1556 48.8772 35.2557C47.7754 35.3559 46.7738 35.4561 45.6721 35.6564C45.0711 35.7565 44.5704 35.7565 43.9694 35.9569C43.6689 36.057 43.3685 36.057 43.068 36.1572C42.8677 36.1572 42.7675 36.1572 42.6673 36.2573H42.5672C42.0664 36.2573 41.5656 36.3575 41.165 36.4576C41.0648 36.4576 40.9647 36.4576 40.8645 36.5578C40.7643 36.5578 40.6642 36.658 40.4639 36.658C40.2635 36.7581 40.1634 36.7581 39.9631 36.8583C39.8629 36.8583 39.7628 36.9584 39.7628 36.9584C39.6626 37.0586 39.5624 37.1588 39.3621 37.2589C39.262 37.3591 39.1618 37.4592 39.0616 37.6595C38.9615 37.7597 38.9615 37.96 38.9615 38.0602C38.8613 38.4608 38.9615 38.8614 39.0616 39.2621C39.0616 39.4624 39.1618 39.7629 39.1618 39.9632C39.262 40.464 39.3621 40.9648 39.4623 41.3654C39.7628 42.4671 40.0632 43.4687 40.564 44.3702C40.7643 44.6706 40.9647 44.8709 41.165 45.0713C41.3653 45.2716 41.6658 45.4719 41.8661 45.5721C41.9662 45.5721 42.0664 45.6722 42.1666 45.6722C42.3669 45.7724 42.5672 45.7724 42.6673 45.8725C42.7675 45.8725 42.8677 45.9727 43.068 45.9727C43.2683 46.0728 43.5688 46.0728 43.7691 46.0728H43.8692C43.8692 46.173 43.7691 46.173 43.7691 46.2732V46.3733C43.5688 46.9743 43.5688 47.5752 43.6689 48.1762C43.6689 48.677 44.0696 48.9774 44.4702 48.9774C44.6705 48.9774 44.8708 48.8773 45.0711 48.7771C45.1713 48.677 45.2715 48.5768 45.2715 48.3765C45.2715 48.2763 45.2715 48.076 45.2715 47.9759C45.1713 47.3749 45.0711 46.774 44.7707 46.2732C44.7707 46.2732 44.7707 46.173 44.6705 46.173C45.6721 46.2732 46.5735 46.2732 47.5751 46.2732C48.6768 46.2732 49.7786 46.173 50.7802 46.0728C52.0822 45.9727 53.2841 45.8725 54.5862 45.7724V45.8725C54.5862 45.9727 54.5862 45.9727 54.486 46.0728C54.486 46.2732 54.3859 46.4735 54.3859 46.5736C54.3859 46.8741 54.3859 47.0744 54.3859 47.3749C54.3859 47.7755 54.486 48.2763 54.486 48.677C53.2841 48.7771 52.0822 48.8773 50.8803 48.9774C49.4781 49.0776 48.0759 49.0776 46.6737 49.1778C45.9726 49.1778 45.1713 49.1778 44.4702 49.2779C43.8692 49.2779 43.2683 49.3781 42.6673 49.3781C42.6673 49.3781 42.6673 49.3781 42.7675 49.3781C42.467 49.3781 42.2667 49.4782 42.1666 49.6785C41.8661 49.6785 41.5656 49.6785 41.2651 49.6785C40.7643 49.6785 40.3637 49.6785 39.8629 49.7787C39.5624 49.7787 39.262 49.8789 39.0616 49.8789C38.8613 49.8789 38.661 50.0792 38.4607 50.1793C38.3605 50.1793 38.3605 50.2795 38.2604 50.2795C38.1602 50.3797 38.0601 50.4798 38.0601 50.58C37.9599 50.6801 37.9599 50.8804 37.9599 50.9806C37.9599 51.0808 37.9599 51.2811 37.9599 51.3812C37.9599 51.4814 37.9599 51.6817 37.9599 51.882C37.9599 51.9822 37.9599 52.0823 37.9599 52.1825C37.9599 52.483 38.0601 52.6833 38.0601 52.9838C38.1602 53.4846 38.2604 53.9854 38.3605 54.4861C38.5609 55.3876 38.7612 56.289 39.1618 57.1904C39.262 57.4909 39.4623 57.7914 39.5624 58.0918C39.5624 58.192 39.6626 58.192 39.6626 58.2922C39.7628 58.4925 39.9631 58.5926 40.0632 58.793C40.4639 59.1936 41.0648 59.2937 41.5656 59.3939C42.1666 59.3939 42.7675 59.3939 43.3685 59.4941C44.4702 59.4941 45.4718 59.4941 46.5735 59.4941C48.5767 59.4941 50.68 59.4941 52.6832 59.5942C53.7849 59.5942 54.7865 59.5942 55.8882 59.6944C56.99 59.5942 57.4908 59.6944 57.9916 59.6944ZM31.7501 21.2336C31.9504 21.0333 32.1507 20.9331 32.351 20.7328C32.6515 20.5325 32.952 20.232 33.2525 19.9315C33.4528 19.7312 33.4528 19.3306 33.2525 19.1302C33.1523 19.0301 32.952 18.9299 32.8518 18.9299C32.7517 18.9299 32.5514 19.0301 32.4512 19.0301C32.0506 19.4307 31.5498 19.7312 31.049 20.1318C30.8487 20.3321 30.5482 20.4323 30.3479 20.6326C30.2477 20.7328 30.1476 20.8329 30.0474 20.9331L29.9472 21.0333C29.4464 21.0333 28.9457 20.9331 28.3447 20.9331C28.1444 20.9331 27.8439 20.8329 27.6436 20.8329C27.7437 20.7328 27.9441 20.6326 28.0442 20.5325C28.4449 20.232 28.8455 19.8314 29.2461 19.5309C29.4464 19.3306 29.4464 18.9299 29.2461 18.7296C29.146 18.6295 29.0458 18.5293 28.8455 18.5293C28.7453 18.5293 28.545 18.6295 28.4449 18.6295C28.0442 18.9299 27.6436 19.3306 27.243 19.631C27.0426 19.8314 26.8423 20.0317 26.642 20.232C26.5418 20.3321 26.4417 20.4323 26.3415 20.4323C26.3415 20.4323 26.3415 20.4323 26.2414 20.5325C26.3415 20.5325 26.1412 20.5325 26.0411 20.5325C25.6404 20.4323 25.3399 20.3321 24.9393 20.232C25.1396 20.1318 25.3399 19.9315 25.4401 19.7312C25.8407 19.3306 26.2414 19.0301 26.642 18.6295C26.8423 18.4291 26.8423 18.0285 26.642 17.8282C26.5418 17.728 26.3415 17.6279 26.2414 17.6279C26.1412 17.6279 25.9409 17.728 25.8407 17.728C25.4401 18.1287 25.0395 18.4291 24.6388 18.8298C24.4385 19.0301 24.2382 19.2304 24.0379 19.4307C24.0379 19.5309 24.0379 19.631 23.9377 19.631L23.8376 19.7312C23.7374 19.7312 23.6373 19.631 23.6373 19.631H23.7374C23.7374 19.631 23.6373 19.631 23.6373 19.5309C23.3368 19.4307 23.1365 19.3306 22.836 19.1302C22.6357 19.0301 22.4354 18.9299 22.235 18.8298C22.4354 18.6295 22.6357 18.4291 22.9361 18.2288C23.3368 17.8282 23.7374 17.4276 24.1381 17.1271C24.3384 16.9268 24.3384 16.5261 24.1381 16.3258C24.0379 16.2257 23.8376 16.1255 23.7374 16.1255C23.6373 16.1255 23.4369 16.2257 23.3368 16.3258C22.9361 16.6263 22.5355 17.0269 22.235 17.4276C22.0347 17.6279 21.9346 17.728 21.7342 17.9283C21.6341 18.0285 21.5339 18.1287 21.3336 18.2288C21.2335 18.1287 21.1333 18.1287 21.0331 18.0285C20.8328 17.8282 20.6325 17.728 20.4322 17.5277C20.2319 17.3274 20.1317 17.2272 20.0316 17.0269C20.0316 17.0269 20.0316 17.0269 20.0316 16.9268L20.1317 16.8266C20.332 16.7264 20.4322 16.5261 20.6325 16.3258C21.0331 15.9252 21.3336 15.6247 21.7342 15.2241C21.9346 15.0238 21.9346 14.6231 21.7342 14.4228C21.6341 14.3226 21.4338 14.2225 21.3336 14.2225C21.2335 14.2225 21.0331 14.2225 20.933 14.3226C20.5323 14.7233 20.2319 15.0238 19.8312 15.4244C19.7311 15.5245 19.5308 15.7249 19.4306 15.825C19.3304 15.6247 19.3304 15.4244 19.2303 15.2241C19.2303 15.0238 19.2303 14.8234 19.2303 14.6231C19.2303 14.3226 19.3304 14.1223 19.4306 13.922C19.5308 13.7217 19.6309 13.5214 19.8312 13.3211C19.9314 13.1207 20.1317 13.0206 20.332 12.8203C20.5323 12.7201 20.7327 12.62 20.933 12.4196C21.1333 12.3195 21.4338 12.3195 21.6341 12.2193C21.7342 12.2193 21.8344 12.2193 21.9346 12.2193C22.235 12.2193 22.4354 12.2193 22.7358 12.2193C22.836 12.2193 23.0363 12.3195 23.1365 12.3195C23.2366 12.3195 23.4369 12.4196 23.5371 12.5198C23.7374 12.62 24.0379 12.7201 24.2382 12.8203C24.2382 12.8203 24.2382 12.9204 24.3384 12.9204C24.5387 13.1207 24.739 13.2209 25.0395 13.1207C25.2398 13.0206 25.34 12.62 25.2398 12.4196C25.1396 12.3195 25.1396 12.2193 25.0395 12.2193C25.0395 12.1192 24.9393 12.1192 24.9393 12.019C24.8392 11.9188 24.739 11.7185 24.6388 11.6184C24.5387 11.5182 24.4385 11.5182 24.3384 11.4181C24.2382 11.3179 24.0379 11.2177 23.8376 11.1176C23.4369 10.9173 23.0363 10.9173 22.6357 10.8171C22.5355 10.8171 22.5355 10.8171 22.4354 10.8171C22.4354 10.6168 22.3352 10.3163 22.3352 10.116C22.3352 9.91568 22.3352 9.71536 22.3352 9.6152C22.3352 9.31473 22.3352 9.01425 22.3352 8.71378C22.4354 8.31314 22.5355 7.81235 22.7358 7.41172C22.9361 7.11124 23.0363 6.71061 23.3368 6.41013C23.5371 6.10966 23.7374 5.90934 24.0379 5.70903C24.3384 5.50871 24.5387 5.40855 24.8392 5.20823H24.739H24.8392H24.9393H24.8392C25.0395 5.10808 25.2398 5.10808 25.4401 5.00792C25.6404 4.90776 25.9409 4.90776 26.1412 4.90776C26.3415 4.90776 26.5419 4.90776 26.7422 4.90776C26.9425 4.90776 27.243 4.90776 27.4433 4.90776C27.8439 5.00792 28.1444 5.00792 28.4449 5.10808C28.3447 5.20823 28.3447 5.40855 28.2445 5.50871C28.0442 5.90934 28.0442 6.10966 27.9441 6.30998C27.8439 6.61045 27.7437 6.91093 27.7437 7.2114C27.6436 7.61203 27.8439 8.01267 28.2445 8.11283C28.6452 8.21299 29.146 8.01267 29.2461 7.61204C29.3463 7.2114 29.4464 6.91093 29.5466 6.51029C29.6468 6.20982 29.7469 6.0095 29.8471 5.70903C30.0474 5.40855 30.1475 5.10808 30.3479 4.8076C30.5482 4.50713 30.7485 4.30681 30.8487 4.00633C31.2493 3.6057 31.6499 3.20507 32.0506 2.80443C32.4512 2.50396 32.952 2.20348 33.3526 2.00317C33.6531 1.90301 33.9536 1.80285 34.254 1.70269C34.5545 1.60253 34.7548 1.60253 35.0553 1.50238C35.3558 1.50238 35.6563 1.50238 35.9567 1.40222C36.2572 1.40222 36.4575 1.40222 36.758 1.40222C37.359 1.50238 37.8597 1.60253 38.3605 1.80285C38.7612 2.00317 39.0616 2.10333 39.3621 2.30364C39.6626 2.50396 39.9631 2.70428 40.2635 2.90459C40.564 3.10491 40.8645 3.40538 41.165 3.6057C41.4654 3.80602 41.6658 4.10649 41.9662 4.40697C42.1666 4.60728 42.467 4.90776 42.6673 5.20823C42.7675 5.30839 42.9678 5.50871 43.068 5.60887C42.2667 5.80918 41.5656 6.10966 40.9647 6.51029C40.6642 6.71061 40.564 7.11124 40.6642 7.51188C40.8645 7.81235 41.2651 7.91251 41.6658 7.81235C41.8661 7.71219 42.1666 7.51188 42.467 7.41172C42.8677 7.2114 43.3685 7.11124 43.8692 7.01109C44.1697 7.01109 44.5704 7.01109 44.8708 7.01109C45.1713 7.11124 45.4718 7.11124 45.7723 7.31156C46.0727 7.41172 46.3732 7.61204 46.5735 7.81235C46.874 8.11283 47.1745 8.4133 47.4749 8.71378C47.6753 8.91409 47.7754 9.21457 47.9757 9.41489C48.0759 9.6152 48.1761 9.91568 48.3764 10.116C48.4765 10.3163 48.4765 10.4165 48.5767 10.6168C48.6768 10.8171 48.6768 10.9173 48.777 11.1176C48.8772 11.4181 48.9773 11.8187 48.9773 12.1192C48.9773 12.4196 49.0775 12.7201 49.0775 13.0206C49.0775 13.3211 49.0775 13.6215 49.0775 13.922C49.0775 14.2225 48.9773 14.523 48.8772 14.8234C48.777 15.1239 48.6768 15.3242 48.5767 15.6247C48.4765 15.825 48.3764 16.0253 48.2762 16.2257C48.0759 16.5261 47.8756 16.8266 47.6753 17.1271C47.5751 17.2272 47.4749 17.4276 47.2746 17.5277C47.0743 17.8282 46.7738 18.0285 46.4734 18.329C46.0727 18.6295 45.6721 18.9299 45.1713 19.1302C45.4718 18.8298 45.6721 18.5293 45.9726 18.1287C46.0727 18.0285 46.0727 17.8282 46.0727 17.728C46.0727 17.6279 45.9726 17.4276 45.8724 17.4276C45.4718 17.5277 45.3716 17.5277 45.2715 17.5277H45.1713C44.971 17.5277 44.8708 17.6279 44.8708 17.728C44.6705 18.0285 44.4702 18.2288 44.1697 18.5293L44.2699 18.4291C43.8692 18.9299 43.4686 19.4307 43.068 19.9315L42.9678 20.0317C42.9678 20.0317 42.9678 20.1318 42.8677 20.232C42.6673 20.3321 42.3669 20.4323 42.1666 20.4323C41.7659 20.5325 41.3653 20.6326 40.9647 20.7328C40.8645 20.7328 40.7643 20.7328 40.6642 20.8329C40.7643 20.7328 40.7643 20.7328 40.8645 20.6326C41.2651 20.1318 41.6658 19.7312 42.0664 19.2304C42.1666 19.1302 42.2667 19.0301 42.2667 18.8298C42.2667 18.7296 42.2667 18.5293 42.1666 18.4291C42.0664 18.329 41.8661 18.2288 41.7659 18.2288C41.6658 18.2288 41.4654 18.2288 41.3653 18.4291C40.9647 18.9299 40.564 19.3306 40.0632 19.8314C39.8629 20.0317 39.6626 20.232 39.5624 20.4323C39.4623 20.5325 39.3621 20.6326 39.262 20.7328L39.1618 20.8329C39.1618 20.8329 39.1618 20.9331 39.0616 20.9331C38.2604 21.0333 37.4591 21.1334 36.6578 21.1334C36.758 21.0333 36.758 21.0333 36.8582 20.9331C37.1586 20.5325 37.5593 20.1318 37.8597 19.7312C38.0601 19.5309 37.9599 19.1302 37.6594 18.9299C37.5593 18.8298 37.4591 18.8298 37.359 18.8298H37.2588C37.0585 18.8298 37.0585 18.9299 36.9583 19.0301C36.6578 19.4307 36.3574 19.8314 35.9567 20.232C35.7564 20.4323 35.6563 20.6326 35.5561 20.8329C35.5561 20.9331 35.4559 21.0333 35.4559 21.0333C35.2556 21.0333 35.0553 21.0333 34.7548 21.0333C33.5529 21.3337 32.6515 21.2336 31.7501 21.2336ZM24.6388 59.5942C24.6388 59.6944 24.6388 59.6944 24.6388 59.5942C24.6388 59.5942 24.6388 59.6944 24.6388 59.5942ZM24.6388 59.5942L24.739 59.4941C24.739 59.5942 24.739 59.5942 24.6388 59.5942ZM24.8392 51.6817C24.9393 51.6817 25.0395 51.7819 25.2398 51.7819C25.2398 51.7819 25.2398 51.7819 25.3399 51.7819C25.3399 51.7819 25.3399 51.882 25.4401 51.882C25.5403 52.0823 25.5403 52.1825 25.5403 52.3828C25.6404 53.785 25.5403 55.1873 25.4401 56.5895C25.4401 56.8899 25.3399 57.1904 25.3399 57.4909C25.3399 57.5911 25.3399 57.5911 25.3399 57.6912C25.3399 57.7914 25.3399 57.7914 25.3399 57.8915V57.9917C25.3399 57.8915 25.3399 57.7914 25.3399 57.7914C25.2398 58.2922 25.1396 58.793 25.0395 59.2937C25.0395 59.3939 24.9393 59.3939 24.9393 59.4941L24.8392 59.5942C24.739 59.6944 24.6388 59.6944 24.5387 59.6944C24.3384 59.7945 24.138 59.7945 24.0379 59.8947C24.0379 59.8947 24.0379 59.8947 24.1381 59.7945C24.2382 59.6944 24.3384 59.5942 24.3384 59.3939C24.3384 59.2937 24.3384 59.0934 24.2382 58.9933C24.1381 58.8931 24.0379 58.793 23.8376 58.793C23.7374 58.793 23.5371 58.793 23.4369 58.8931C23.2366 59.1936 23.0363 59.3939 22.7358 59.6944C22.6357 59.7945 22.6357 59.8947 22.6357 59.9949C22.1349 59.9949 21.7342 60.095 21.2335 60.095C21.3336 59.9949 21.4338 59.8947 21.5339 59.7945C21.6341 59.6944 21.6341 59.4941 21.6341 59.3939C21.6341 59.2937 21.5339 59.0934 21.4338 58.9933C21.3336 58.8931 21.2335 58.8931 21.1333 58.8931H21.0331C20.8328 58.8931 20.8328 58.9933 20.7327 59.0934C20.5323 59.3939 20.332 59.5942 20.1317 59.8947C20.1317 59.9949 20.0316 60.095 20.0316 60.095C19.2303 60.095 18.5292 60.1952 17.7279 60.1952C17.9282 59.9949 18.0284 59.8947 18.2287 59.6944C18.429 59.4941 18.429 59.0934 18.2287 58.8931C18.1285 58.793 17.9282 58.6928 17.8281 58.6928C17.7279 58.6928 17.5276 58.6928 17.4274 58.8931C17.0268 59.2937 16.526 59.7945 16.1254 60.1952C15.7247 60.1952 15.224 60.1952 14.8233 60.1952C14.5228 60.1952 14.3225 60.1952 14.0221 60.1952C14.2224 59.9949 14.3225 59.8947 14.5228 59.6944C14.7232 59.4941 14.7232 59.0934 14.5228 58.8931C14.4227 58.793 14.2224 58.6928 14.1222 58.6928C14.0221 58.6928 13.8217 58.793 13.7216 58.8931C13.4211 59.1936 13.1206 59.3939 12.9203 59.6944C12.72 59.8947 12.6198 59.9949 12.4195 60.1952C11.6183 60.1952 10.7168 60.1952 9.91556 60.095C10.0157 59.9949 10.1159 59.8947 10.216 59.7945C10.6167 59.3939 10.9171 58.9933 11.3178 58.5926C11.5181 58.3923 11.5181 57.9917 11.3178 57.7914C11.2176 57.6912 11.0173 57.5911 10.9171 57.5911C10.817 57.5911 10.6167 57.5911 10.5165 57.7914C9.91556 58.4925 9.21445 59.1936 8.71366 59.8947L8.81382 59.7945C8.71366 59.8947 8.71366 59.9949 8.6135 59.9949C8.11271 59.9949 7.61192 59.8947 7.11113 59.8947C7.01097 59.8947 6.91081 59.8947 6.91081 59.8947C7.01097 59.6944 7.21129 59.5942 7.31144 59.3939C7.71208 58.8931 8.01255 58.4925 8.41319 57.9917C8.01255 58.0919 7.91239 57.6912 7.61192 57.5911C7.51176 57.4909 7.4116 57.4909 7.31144 57.4909C7.11113 57.4909 6.91081 57.5911 6.81065 57.7914C6.41002 58.2922 6.10954 58.793 5.70891 59.2937C5.60875 59.4941 5.40844 59.6944 5.30828 59.8947C5.20812 59.7945 5.10796 59.6944 5.0078 59.5942C4.80749 59.2937 4.60717 58.8931 4.40685 58.5926C4.60717 58.3923 4.70733 58.2922 4.90764 58.0918C5.20812 57.7914 5.50859 57.3907 5.70891 57.0903C5.90923 56.8899 5.80907 56.4893 5.50859 56.289C5.40844 56.1888 5.30828 56.1888 5.20812 56.1888C5.0078 56.1888 4.80748 56.289 4.70733 56.4893C4.50701 56.7898 4.20654 57.0903 3.90606 57.4909C3.90606 57.3907 3.90606 57.3907 3.90606 57.2906C3.8059 56.8899 3.70574 56.4893 3.70574 55.9885C4.00622 55.688 4.10638 55.5879 4.20653 55.3876C4.30669 55.2874 4.40685 55.1873 4.40685 54.9869C4.40685 54.8868 4.40685 54.6865 4.30669 54.5863C4.20654 54.4861 4.10638 54.386 3.90606 54.386C3.8059 54.386 3.8059 54.4861 3.70574 54.4861C3.70574 54.1857 3.60558 53.8852 3.70574 53.5847C3.8059 53.4846 3.90606 53.4846 4.00622 53.3844C4.90764 53.0839 5.90923 52.8836 6.91081 52.7835C7.91239 52.6833 8.81382 52.5831 9.8154 52.5831C10.216 52.5831 10.6167 52.2827 10.6167 51.7819V51.6817C12.3194 51.5816 13.9219 51.4814 15.6246 51.4814C17.2271 51.4814 18.8297 51.3812 20.4322 51.4814C21.2335 51.4814 22.0347 51.4814 22.836 51.5816C23.3368 51.5816 24.138 51.5816 24.8392 51.6817ZM21.0331 47.3749C21.0331 47.4751 20.933 47.4751 20.933 47.5752C20.8328 47.7755 20.8328 47.8757 20.8328 48.076C20.8328 48.4766 20.8328 48.8773 20.8328 49.2779C20.8328 49.4782 20.933 49.6785 21.0331 49.8789C21.0331 49.8789 21.1333 49.8789 21.1333 49.979C20.5323 49.979 20.0316 49.979 19.4306 50.0792C17.127 50.1793 14.8233 50.2795 12.5197 50.3797C11.4179 50.4798 10.216 50.4798 9.11429 50.58C8.91398 50.58 8.81382 50.58 8.6135 50.58C8.6135 50.4798 8.6135 50.3797 8.6135 50.2795C8.51334 49.7787 8.41319 49.2779 8.31303 48.7771C8.21287 48.5768 8.21287 48.2763 8.11271 48.076C8.6135 48.076 9.11429 48.076 9.61509 48.076C11.7184 48.076 13.7216 47.8757 15.8249 47.7755C16.9266 47.6754 17.9282 47.6754 19.03 47.5752C19.6309 47.4751 20.332 47.3749 21.0331 47.3749ZM25.1396 44.6706C25.1396 44.6706 25.1396 44.7708 25.1396 44.6706V44.6706ZM25.1396 44.6706L25.2398 44.5705C25.2398 44.6706 25.1396 44.6706 25.1396 44.6706ZM19.8312 36.7581C21.1333 36.7581 22.5355 36.7581 23.8376 36.8583C24.0379 36.8583 24.138 36.8583 24.3384 36.9584H24.4385C24.4385 36.9584 24.5387 36.9584 24.5387 37.0586C24.5387 36.9584 24.4385 36.9584 24.4385 36.8583C24.5387 36.9584 24.5387 37.0586 24.6388 37.1587C24.739 37.2589 24.739 37.3591 24.8392 37.4592C25.0395 37.96 25.1396 38.561 25.2398 39.0618C25.34 39.9632 25.4401 40.8646 25.4401 41.766C25.4401 42.6675 25.4401 43.5689 25.3399 44.4703C25.3399 44.5705 25.3399 44.5705 25.3399 44.6706V44.7708C25.2398 44.8709 25.1396 44.8709 25.0395 44.9711C24.9393 45.0713 24.739 45.0713 24.6388 45.0713C24.6388 44.8709 24.6388 44.7708 24.5387 44.6706C24.4385 44.5705 24.2382 44.4703 24.1381 44.4703C24.0379 44.4703 23.8376 44.4703 23.7374 44.6706C23.5371 44.9711 23.2366 45.1714 23.0363 45.4719L22.9361 45.5721C22.3352 45.6722 21.7342 45.7724 21.1333 45.8725C21.2335 45.7724 21.3336 45.6722 21.4338 45.5721C21.5339 45.4719 21.6341 45.3717 21.6341 45.1714C21.6341 45.0713 21.6341 44.8709 21.4338 44.7708C21.3336 44.6706 21.1333 44.5705 21.0331 44.5705C20.933 44.5705 20.7327 44.5705 20.6325 44.7708C20.332 45.0713 20.0316 45.3717 19.8312 45.6722L19.7311 45.7724C19.6309 45.7724 19.6309 45.8725 19.6309 45.9727C18.8297 46.0728 17.9282 46.173 17.127 46.173C17.5276 45.8725 17.9282 45.4719 18.2287 45.0713C18.429 44.8709 18.429 44.5705 18.2287 44.27C18.1285 44.1698 17.9282 44.0697 17.8281 44.0697C17.7279 44.0697 17.5276 44.0697 17.4274 44.1698C17.0268 44.5705 16.6262 44.9711 16.2255 45.2716C16.0252 45.4719 15.8249 45.6722 15.6246 45.8725C15.5244 45.9727 15.4243 46.0728 15.3241 46.173C14.8233 46.173 14.4227 46.173 13.9219 46.173C13.8217 46.173 13.6214 46.173 13.5213 46.173C13.9219 45.7724 14.3225 45.3717 14.7232 44.9711C14.9235 44.7708 14.9235 44.3702 14.7232 44.1698C14.623 44.0697 14.4227 43.9695 14.3225 43.9695C14.2224 43.9695 14.0221 43.9695 13.9219 44.0697C13.5213 44.4703 13.2208 44.7708 12.8202 45.1714C12.5197 45.4719 12.2192 45.7724 11.9187 46.0728C11.4179 46.0728 10.817 46.0728 10.3162 46.0728C10.216 46.0728 10.216 46.0728 10.1159 46.0728C10.5165 45.6722 10.817 45.2716 11.2176 44.9711C11.4179 44.7708 11.4179 44.3702 11.2176 44.1698C11.1175 44.0697 10.9171 43.9695 10.817 43.9695C10.7168 43.9695 10.5165 43.9695 10.4164 44.0697C10.0157 44.4703 9.71524 44.8709 9.31461 45.2716C9.11429 45.4719 8.91398 45.7724 8.6135 45.9727C8.11271 45.9727 7.61192 45.9727 7.01097 45.8725C6.91081 45.8725 6.91081 45.8725 6.81065 45.8725C7.01097 45.6722 7.21129 45.4719 7.4116 45.2716C7.91239 44.7708 8.31303 44.3702 8.81382 43.8694C9.01414 43.669 9.01414 43.3686 8.81382 43.0681C8.71366 42.9679 8.51334 42.8678 8.41319 42.8678C8.31303 42.8678 8.11271 42.8678 8.01255 42.9679C7.61192 43.3686 7.21129 43.7692 6.81065 44.1698C6.51018 44.4703 6.2097 44.7708 6.00939 45.0713C5.90923 44.9711 5.90923 44.8709 5.80907 44.7708C5.70891 44.4703 5.60875 44.0697 5.50859 43.669H5.60875C5.60875 43.669 5.60875 43.5689 5.70891 43.5689C5.90923 43.3686 6.00939 43.2684 6.10954 43.0681C6.51018 42.5673 6.91081 42.0665 7.31144 41.6659C7.4116 41.5657 7.4116 41.3654 7.4116 41.2652C7.4116 41.1651 7.31144 40.9648 7.21129 40.9648C7.11113 40.8646 7.01097 40.8646 6.91081 40.8646H6.81065C6.61034 40.8646 6.61034 40.9648 6.51018 41.0649C6.2097 41.4656 5.90923 41.8662 5.50859 42.2668L5.40844 42.367C5.0078 42.1667 5.0078 41.5657 4.90764 40.8646C5.20812 40.5641 5.40844 40.2637 5.70891 40.0633C5.90923 39.863 5.90923 39.5626 5.70891 39.2621C5.60875 39.1619 5.40844 39.0618 5.30828 39.0618C5.20812 39.0618 5.0078 39.0618 4.90764 39.1619C4.90764 38.8614 4.90764 38.6611 4.90764 38.3606V38.2605C5.0078 38.2605 5.0078 38.1603 5.10796 38.1603C5.40844 38.0602 5.80907 37.96 6.2097 37.8599C6.81065 37.7597 7.31144 37.7597 7.91239 37.7597C8.6135 37.7597 9.41477 37.7597 10.1159 37.7597C10.5165 37.7597 10.9171 37.4592 10.9171 36.9584C11.0173 36.9584 11.1175 36.9584 11.3178 36.9584C12.5197 36.9584 13.6214 36.9584 14.8233 36.8583C14.9235 36.9584 15.1238 37.0586 15.3241 36.9584C15.4243 36.9584 15.4243 36.8583 15.5244 36.7581C15.6246 36.7581 15.6246 36.7581 15.7247 36.7581C17.0268 36.8583 18.429 36.7581 19.8312 36.7581ZM15.3241 30.7486C15.3241 30.6485 15.3241 30.6485 15.3241 30.7486V30.7486ZM15.3241 30.6485C15.3241 30.5483 15.3241 30.6485 15.3241 30.6485V30.6485ZM51.1808 44.8709C50.8803 44.8709 50.5799 44.8709 50.2794 44.8709C50.4797 44.6706 50.68 44.4703 50.8803 44.27C50.9805 44.1698 51.0806 44.0697 51.0806 43.8694C51.0806 43.669 51.0806 43.5689 50.8803 43.4687C50.7802 43.3686 50.5799 43.2684 50.4797 43.2684C50.3795 43.2684 50.1792 43.2684 50.0791 43.4687C49.6784 43.8694 49.2778 44.3702 48.8772 44.8709L48.9773 44.7708L48.8772 44.8709C48.8772 44.8709 48.8772 44.8709 48.8772 44.9711C48.1761 44.9711 47.4749 44.9711 46.874 44.8709C46.874 44.8709 46.874 44.7708 46.9742 44.7708C47.1745 44.4703 47.4749 44.0697 47.6753 43.7692C47.8756 43.5689 47.7754 43.1683 47.4749 42.9679C47.3748 42.8678 47.2746 42.8678 47.1745 42.8678C46.9742 42.8678 46.7738 42.9679 46.6737 43.1683C46.3732 43.669 46.0727 44.1698 45.6721 44.6706V44.7708C45.4718 44.7708 45.2715 44.7708 45.0711 44.7708C44.8708 44.7708 44.6705 44.6706 44.4702 44.6706C44.2699 44.6706 44.1697 44.5705 43.9694 44.5705C44.4702 43.9695 44.971 43.3686 45.3716 42.7676C45.5719 42.5673 45.4718 42.1667 45.1713 41.9664C45.0711 41.8662 44.971 41.8662 44.8708 41.8662C44.6705 41.8662 44.4702 41.9664 44.37 42.1667C44.0696 42.5673 43.6689 43.0681 43.3685 43.4687C43.1681 43.669 43.068 43.8694 42.8677 44.1698L42.7675 44.0697C42.6673 43.9695 42.467 43.7692 42.3669 43.669C42.2667 43.4687 42.1666 43.2684 42.0664 43.0681C42.0664 43.0681 42.0664 42.9679 41.9662 42.9679C41.9662 42.9679 42.0664 42.9679 42.0664 42.8678C42.0664 42.8678 42.0664 42.9679 41.9662 42.9679C42.0664 42.7676 42.2667 42.5673 42.467 42.367C42.7675 41.9664 43.068 41.6659 43.2683 41.2652C43.4686 41.0649 43.3685 40.6643 43.068 40.464C42.9678 40.3638 42.8677 40.3638 42.7675 40.3638H42.6673C42.467 40.3638 42.467 40.464 42.3669 40.5641C42.0664 40.8646 41.8661 41.2652 41.5656 41.6659C41.5656 41.5657 41.4654 41.4656 41.4654 41.4656C41.3653 41.0649 41.2651 40.5641 41.2651 40.1635C41.165 39.6627 41.165 39.1619 41.165 38.561V38.4608C41.165 38.4608 41.165 38.4608 41.2651 38.3606C41.3653 38.3606 41.4654 38.2605 41.5656 38.2605C41.8661 38.1603 42.0664 38.0602 42.3669 38.0602C42.7675 37.96 43.1681 37.96 43.5688 37.8599C43.6689 37.8599 43.7691 37.7597 43.8692 37.6595C43.9694 37.5594 44.0696 37.4592 44.0696 37.2589C44.5704 37.2589 45.0711 37.1587 45.5719 37.1587C46.1729 37.0586 46.7738 37.0586 47.3748 36.9584C48.6768 36.7581 50.0791 36.658 51.3811 36.5578C52.6832 36.4576 53.8851 36.3575 55.1871 36.2573C55.7881 36.2573 56.389 36.2573 56.99 36.1572C57.6911 36.1572 58.3922 36.1572 59.0933 36.2573C59.1935 36.2573 59.3938 36.3575 59.4939 36.3575C59.4939 36.3575 59.5941 36.3575 59.5941 36.4576L59.6943 36.5578C59.7944 36.658 59.7944 36.7581 59.8946 36.8583C59.9947 37.1587 60.0949 37.3591 60.0949 37.6595C60.0949 37.7597 60.0949 37.8599 60.1951 37.96C60.2952 38.7613 60.2952 39.6627 60.3954 40.464C60.3954 41.2652 60.3954 42.0665 60.2952 42.8678C60.2952 43.0681 60.1951 43.1683 60.1951 43.3686C60.1951 43.3686 60.1951 43.3686 60.1951 43.4687L60.0949 43.5689C59.9947 43.669 59.8946 43.669 59.7944 43.7692C59.1935 44.0697 58.4924 44.1698 57.7913 44.27C58.0917 43.9695 58.292 43.669 58.5925 43.2684C58.6927 43.1683 58.6927 42.9679 58.6927 42.8678C58.6927 42.7676 58.5925 42.5673 58.3922 42.4671C58.292 42.367 58.1919 42.367 58.0917 42.367H57.9916C57.7913 42.367 57.6911 42.4671 57.5909 42.6675C57.3906 42.9679 57.0901 43.3686 56.8898 43.669C56.7897 43.8694 56.6895 43.9695 56.5894 44.1698C56.4892 44.27 56.4892 44.3702 56.389 44.4703C55.5878 44.5705 54.8867 44.5705 54.0854 44.6706C54.2857 44.4703 54.3859 44.3702 54.5862 44.1698C54.7865 43.9695 54.7865 43.5689 54.5862 43.3686C54.486 43.2684 54.2857 43.1683 54.1856 43.1683C54.0854 43.1683 53.8851 43.1683 53.7849 43.3686C53.4844 43.669 53.184 43.9695 52.7833 44.3702C52.6832 44.4703 52.583 44.5705 52.3827 44.7708L52.2825 44.8709C51.9821 44.7708 51.5814 44.8709 51.1808 44.8709ZM40.3637 51.6817C40.2635 51.6817 40.3637 51.6817 40.3637 51.6817C40.2635 51.6817 40.3637 51.6817 40.3637 51.6817ZM41.6658 57.3907C41.6658 57.3907 41.7659 57.3907 41.6658 57.3907C41.6658 57.3907 41.7659 57.3907 41.6658 57.3907ZM49.8787 58.192C50.0791 57.9917 50.1792 57.8915 50.3795 57.6912C50.5799 57.4909 50.5799 57.1904 50.3795 56.8899C50.2794 56.7898 50.0791 56.6896 49.9789 56.6896C49.8787 56.6896 49.6784 56.6896 49.5783 56.7898C49.2778 57.0903 49.0775 57.2906 48.777 57.5911C48.6768 57.6912 48.5767 57.7914 48.5767 57.8915C48.4765 57.9917 48.4765 57.9917 48.3764 58.0918C47.7754 58.0918 47.1745 58.0918 46.5735 58.0918C46.3732 58.0918 46.1729 58.0918 45.9726 58.0918C46.1729 57.8915 46.3732 57.6912 46.5735 57.4909C46.7738 57.2906 46.7738 56.9901 46.5735 56.6896C46.4734 56.5895 46.273 56.4893 46.1729 56.4893C46.0727 56.4893 45.8724 56.4893 45.7723 56.5895C45.3716 56.9901 44.971 57.4909 44.5704 57.8915C44.5704 57.8915 44.5704 57.8915 44.6705 57.7914C44.6705 57.7914 44.6705 57.7914 44.5704 57.8915C43.9694 57.8915 43.2683 57.7914 42.6673 57.6912C42.9678 57.2906 43.2683 56.8899 43.5688 56.5895C43.7691 56.3892 43.6689 55.9885 43.3685 55.7882C43.2683 55.688 43.1681 55.688 43.068 55.688H42.9678C42.7675 55.688 42.7675 55.7882 42.6673 55.8884C42.467 56.1888 42.1666 56.4893 41.9662 56.7898C41.8661 56.8899 41.7659 57.0903 41.6658 57.1904C41.5656 57.0903 41.5656 57.0903 41.4654 56.9901C41.3653 56.7898 41.2651 56.6896 41.165 56.4893C41.165 56.3892 41.0648 56.289 41.0648 56.1888C40.9647 55.9885 40.9647 55.8884 40.9647 55.688C41.0648 55.5879 41.165 55.5879 41.165 55.4877C41.2651 55.3876 41.3653 55.2874 41.3653 55.0871C41.5656 54.8868 41.6658 54.5863 41.8661 54.386C42.0664 54.1857 41.9662 53.785 41.6658 53.6849C41.5656 53.5847 41.4654 53.5847 41.3653 53.5847C41.165 53.5847 40.9647 53.6849 40.8645 53.785C40.7643 53.9854 40.6642 54.1857 40.4639 54.386C40.4639 54.1857 40.3637 54.0855 40.3637 53.8852C40.3637 53.4846 40.2635 53.0839 40.2635 52.6833C40.2635 52.2827 40.1634 51.882 40.2635 51.4814C40.3637 51.4814 40.564 51.3812 40.6642 51.3812C40.7643 51.3812 40.7643 51.3812 40.8645 51.3812C42.3669 51.1809 43.9694 51.1809 45.4718 51.1809C45.8724 51.1809 46.1729 50.8804 46.273 50.4798C46.4734 50.4798 46.6737 50.4798 46.874 50.4798C48.2762 50.4798 49.6784 50.3797 51.1808 50.3797C52.583 50.3797 53.9852 50.2795 55.3875 50.2795C56.0886 50.2795 56.6895 50.2795 57.3906 50.2795C58.0917 50.2795 58.6927 50.2795 59.3938 50.3797V50.4798C59.4939 50.6801 59.4939 50.7803 59.4939 50.9806C59.4939 51.0808 59.4939 51.1809 59.4939 51.2811V51.1809C59.5941 51.9822 59.4939 52.6833 59.4939 53.4846C59.4939 54.1857 59.3938 54.8868 59.2936 55.5879C59.1935 56.289 59.0933 56.9901 58.7928 57.6912C58.5925 57.7914 58.292 57.7914 58.0917 57.8915C57.3906 57.9917 56.6895 57.9917 55.8882 57.9917C55.9884 57.7914 56.0886 57.4909 55.8882 57.2906C55.7881 57.1904 55.5878 57.0903 55.4876 57.0903C55.3875 57.0903 55.1871 57.0903 55.087 57.2906C54.8867 57.4909 54.7865 57.6912 54.5862 57.8915C54.5862 57.8915 54.5862 57.8915 54.486 57.9917V58.0918C54.0854 58.0918 53.7849 58.0918 53.3843 58.0918C53.5846 57.8915 53.5846 57.5911 53.3843 57.3907C53.2841 57.2906 53.0838 57.1904 52.9837 57.1904C52.8835 57.1904 52.6832 57.1904 52.583 57.2906C52.3827 57.4909 52.2825 57.5911 52.0822 57.7914C51.9821 57.8915 51.9821 57.9917 51.8819 57.9917C51.3811 57.9917 50.9805 57.9917 50.4797 57.9917C50.3795 58.192 50.0791 58.192 49.8787 58.192ZM24.739 5.40855C24.6388 5.40855 24.739 5.40855 24.739 5.40855V5.40855Z" fill="black"/>
<path d="M54.486 40.5644C54.486 40.6645 54.486 40.7647 54.486 40.8649C54.486 40.965 54.5862 41.0652 54.5862 41.2655C54.6864 41.3657 54.6864 41.4658 54.7865 41.566C54.9868 41.7663 55.1872 41.8664 55.3875 41.9666C55.5878 42.0668 55.6879 42.0668 55.8883 42.0668C56.0886 42.0668 56.2889 42.0668 56.5894 42.0668C56.6895 42.0668 56.8898 42.0668 56.99 41.9666C57.0902 41.9666 57.1903 41.8664 57.3906 41.8664C57.4908 41.7663 57.591 41.7663 57.6911 41.6661C57.7913 41.566 57.8914 41.4658 57.9916 41.3656C58.0918 41.2655 58.1919 41.1653 58.1919 40.965C58.2921 40.8649 58.2921 40.7647 58.2921 40.6645C58.3922 40.3641 58.2921 40.0636 58.1919 39.663C58.0917 39.3625 57.9916 39.1622 57.7913 38.9619C57.6911 38.8617 57.6911 38.7615 57.591 38.6614C57.4908 38.5612 57.3906 38.5612 57.3906 38.4611C57.1903 38.3609 56.99 38.2607 56.7897 38.2607C56.6895 38.2607 56.6895 38.2607 56.5894 38.2607H56.4892C56.2889 38.2607 56.1887 38.3609 55.9884 38.3609C55.5878 38.5612 55.1872 38.7615 54.8867 39.062C54.7865 39.1622 54.6864 39.2623 54.5862 39.4626C54.486 39.5628 54.3859 39.663 54.3859 39.7631C54.0854 40.0636 54.1856 40.3641 54.486 40.5644C54.486 40.5644 54.3859 40.5644 54.486 40.5644ZM56.7897 39.4626C56.6895 39.4626 56.6895 39.4626 56.7897 39.4626C56.6895 39.4626 56.6895 39.4626 56.7897 39.4626C56.6895 39.4626 56.6895 39.4626 56.7897 39.4626ZM55.8883 39.7631C56.0886 39.663 56.1887 39.5628 56.3891 39.4626C56.4892 39.4626 56.4892 39.4626 56.5894 39.4626H56.6895C56.6895 39.4626 56.6895 39.4626 56.7897 39.4626H56.8898L56.99 39.5628C57.0902 39.663 57.1903 39.8633 57.1903 39.9634C57.1903 40.0636 57.2905 40.1638 57.2905 40.2639C57.2905 40.2639 57.2905 40.2639 57.2905 40.3641C57.2905 40.4642 57.2905 40.5644 57.1903 40.5644C57.1903 40.5644 57.1903 40.5644 57.0902 40.6645L56.99 40.7647C56.8898 40.7647 56.7897 40.8649 56.6895 40.8649C56.5894 40.8649 56.5894 40.8649 56.4892 40.8649C56.3891 40.8649 56.2889 40.8649 56.1887 40.8649C56.0886 40.8649 55.9884 40.8649 55.8883 40.7647L55.7881 40.6645C55.7881 40.6645 55.7881 40.6645 55.6879 40.6645C55.6879 40.6645 55.6879 40.6645 55.6879 40.5644C55.6879 40.4642 55.6879 40.2639 55.6879 40.1637C55.6879 40.0636 55.6879 39.9634 55.5878 39.8633C55.6879 39.8633 55.7881 39.8633 55.8883 39.7631ZM53.3843 54.1859C53.3843 54.2861 53.3843 54.3862 53.2841 54.3862C53.2841 54.5866 53.2841 54.6867 53.2841 54.887C53.2841 54.9872 53.2841 55.1875 53.3843 55.2877C53.3843 55.3878 53.4845 55.488 53.5846 55.6883C53.6848 55.8886 53.9853 56.0889 54.1856 56.1891C54.3859 56.2892 54.6864 56.3894 54.8867 56.3894C54.9868 56.3894 55.1872 56.3894 55.2873 56.3894C55.3875 56.3894 55.4876 56.2892 55.6879 56.2892C55.7881 56.1891 55.8883 56.1891 55.9884 56.0889C56.0886 55.9888 56.2889 55.8886 56.3891 55.6883C56.5894 55.488 56.6895 55.1875 56.7897 54.9872C56.7897 54.887 56.8898 54.6867 56.8898 54.5866C56.8898 54.3862 56.8898 54.1859 56.8898 54.0858C56.8898 53.8854 56.7897 53.6851 56.6895 53.3847C56.5894 53.1843 56.4892 52.984 56.2889 52.6835C56.1887 52.5834 56.0886 52.4832 55.9884 52.4832C55.8883 52.3831 55.7881 52.3831 55.6879 52.2829C55.4876 52.1828 55.2873 52.1828 55.1872 52.1828C55.087 52.1828 55.087 52.1828 54.9868 52.1828C54.7865 52.1828 54.6864 52.1828 54.486 52.2829C54.3859 52.2829 54.1856 52.3831 54.0854 52.4832C53.9853 52.5834 53.8851 52.5834 53.6848 52.6835C53.5846 52.6835 53.4845 52.7837 53.4845 52.8839C53.2841 53.0842 53.0838 53.2845 52.8835 53.4848C52.6832 53.6851 52.7834 54.0858 53.0838 54.1859C53.184 54.1859 53.2841 54.2861 53.3843 54.1859ZM55.1872 55.2877C55.1872 55.2877 55.2873 55.2877 55.1872 55.2877C55.1872 55.2877 55.2873 55.2877 55.1872 55.2877ZM55.1872 53.2845C55.1872 53.2845 55.1872 53.3847 55.1872 53.2845C55.1872 53.3847 55.1872 53.3847 55.1872 53.2845C55.1872 53.3847 55.1872 53.2845 55.1872 53.2845ZM55.1872 53.3847C55.087 53.3847 55.1872 53.3847 55.1872 53.3847C55.087 53.3847 55.1872 53.3847 55.1872 53.3847ZM54.2857 53.6851C54.486 53.585 54.6864 53.4848 54.8867 53.3847C54.9868 53.3847 55.087 53.3847 55.087 53.2845H55.1872H55.2873C55.2873 53.2845 55.2873 53.2845 55.3875 53.2845C55.4876 53.2845 55.4876 53.3847 55.5878 53.4848C55.5878 53.585 55.6879 53.585 55.6879 53.6851C55.6879 53.7853 55.7881 53.8854 55.7881 53.9856C55.7881 54.0858 55.7881 54.1859 55.7881 54.3862C55.7881 54.4864 55.6879 54.6867 55.6879 54.7869C55.6879 54.887 55.5878 54.887 55.5878 54.9872C55.4876 55.0873 55.4876 55.1875 55.3875 55.1875C55.3875 55.1875 55.2873 55.1875 55.2873 55.2877H55.1872C55.087 55.2877 54.9868 55.2877 54.8867 55.2877H54.7865C54.7865 55.2877 54.6864 55.2877 54.6864 55.1875L54.5862 55.0873C54.5862 55.0873 54.5862 54.9872 54.486 54.9872C54.486 54.887 54.486 54.887 54.486 54.7869C54.486 54.5866 54.486 54.3862 54.5862 54.1859C54.5862 53.9856 54.486 53.7853 54.2857 53.6851C54.1856 53.7853 54.1856 53.6851 54.2857 53.6851Z" fill="black"/>
<path d="M18.6295 42.5674C18.7296 42.7677 18.8298 42.968 18.9299 43.1683C19.0301 43.2685 19.1302 43.3686 19.1302 43.3686C19.2304 43.4688 19.3306 43.4688 19.4307 43.569C19.5309 43.6691 19.631 43.6691 19.7312 43.6691C19.8314 43.6691 19.8314 43.6691 19.9315 43.6691C20.0317 43.6691 20.1318 43.6691 20.3321 43.6691C20.4323 43.6691 20.5325 43.569 20.7328 43.569C20.8329 43.4688 21.0333 43.4688 21.1334 43.3686C21.3337 43.2685 21.534 43.0682 21.7344 42.8678C21.8345 42.7677 21.9347 42.5674 22.0348 42.4672C22.135 42.3671 22.135 42.1667 22.2352 42.0666C22.3353 41.8663 22.3353 41.7661 22.3353 41.5658C22.3353 41.3655 22.3353 41.1652 22.3353 40.8647C22.3353 40.3639 22.135 39.8631 21.7344 39.6628C21.6342 39.5626 21.534 39.5626 21.4339 39.4625C21.3337 39.3623 21.2336 39.3623 21.1334 39.3623C21.0333 39.3623 20.9331 39.3623 20.9331 39.3623C20.7328 39.3623 20.5325 39.3623 20.3321 39.4625C20.1318 39.5626 19.8314 39.6628 19.631 39.8631C19.5309 39.9633 19.3306 40.0634 19.2304 40.1636C19.1302 40.2637 19.0301 40.3639 18.9299 40.464C18.8298 40.5642 18.7296 40.6644 18.6295 40.8647C18.5293 41.065 18.6295 41.2653 18.8298 41.4656C18.6295 41.5658 18.5293 41.7661 18.5293 41.9664C18.5293 42.1667 18.5293 42.2669 18.5293 42.4672C18.5293 42.2669 18.5293 42.3671 18.6295 42.5674ZM19.8314 42.3671C19.9315 42.3671 19.9315 42.3671 19.8314 42.3671C19.9315 42.3671 19.9315 42.3671 19.8314 42.3671C19.9315 42.3671 19.8314 42.3671 19.8314 42.3671ZM19.9315 42.3671C19.9315 42.3671 19.9315 42.4672 19.9315 42.3671C19.9315 42.4672 19.9315 42.4672 19.9315 42.3671C19.9315 42.4672 19.9315 42.4672 19.9315 42.3671ZM21.0333 40.3639C21.1334 40.3639 21.1334 40.3639 21.0333 40.3639C21.1334 40.3639 21.1334 40.3639 21.0333 40.3639C21.1334 40.3639 21.1334 40.3639 21.0333 40.3639C21.1334 40.3639 21.1334 40.3639 21.0333 40.3639ZM20.9331 40.2637H20.8329C20.8329 40.2637 20.8329 40.2637 20.9331 40.2637ZM19.631 40.9648C19.631 40.9648 19.631 41.065 19.631 40.9648C19.631 41.065 19.5309 41.065 19.5309 41.065C19.631 41.065 19.631 40.9648 19.631 40.9648ZM19.5309 41.065C19.5309 41.065 19.631 41.065 19.5309 41.065C19.631 40.9648 19.7312 40.8647 19.9315 40.7645C19.9315 40.7645 19.8314 40.7645 19.8314 40.8647L19.9315 40.7645C20.1318 40.6644 20.3321 40.464 20.6326 40.3639C20.7328 40.3639 20.7328 40.3639 20.8329 40.2637H20.9331C20.9331 40.2637 20.9331 40.2637 21.0333 40.2637C21.0333 40.2637 21.0333 40.2637 21.1334 40.2637L21.2336 40.3639C21.2336 40.3639 21.2336 40.464 21.3337 40.464C21.3337 40.5642 21.3337 40.5642 21.3337 40.6644C21.3337 40.7645 21.3337 40.8647 21.3337 40.9648C21.3337 41.065 21.3337 41.065 21.3337 41.1652C21.3337 41.2653 21.2336 41.4656 21.2336 41.5658C21.1334 41.6659 21.1334 41.7661 21.0333 41.8663C20.9331 41.9664 20.8329 42.0666 20.7328 42.1667C20.6326 42.1667 20.6326 42.2669 20.5325 42.2669C20.4323 42.2669 20.4323 42.2669 20.3321 42.2669H20.232H20.1318C20.1318 42.2669 20.1318 42.2669 20.0317 42.2669C20.0317 42.2669 20.0317 42.1667 19.9315 42.1667C19.9315 42.1667 19.9315 42.0666 19.8314 42.0666C19.8314 41.9664 19.8314 41.8663 19.8314 41.8663C19.8314 41.7661 19.8314 41.7661 19.8314 41.6659C19.8314 41.4656 19.7312 41.2653 19.5309 41.065C19.5309 41.1652 19.5309 41.1652 19.5309 41.065Z" fill="black"/>
<path d="M19.1314 53.8852C19.0313 53.9854 18.9311 54.1857 18.9311 54.2859C18.8309 54.4862 18.9311 54.7866 19.2316 54.8868C19.1314 55.0871 19.0313 55.2874 18.9311 55.4878C18.8309 55.6881 18.8309 55.8884 18.8309 56.0887C18.8309 56.289 18.8309 56.3892 18.8309 56.5895C18.8309 56.6897 18.8309 56.89 18.9311 56.9901C18.9311 57.0903 19.0313 57.1904 19.1314 57.3908C19.2316 57.4909 19.2316 57.5911 19.3317 57.6912C19.3317 57.6912 19.4319 57.7914 19.532 57.7914C19.6322 57.8916 19.7324 57.8916 19.8325 57.9917C20.0328 58.0919 20.2332 58.0919 20.5336 58.192C20.6338 58.192 20.7339 58.192 20.8341 58.192C20.9343 58.192 20.9343 58.192 21.0344 58.0919C21.1346 58.0919 21.2347 57.9917 21.3349 57.8916C21.4351 57.7914 21.5352 57.7914 21.6354 57.6912C21.7355 57.5911 21.8357 57.4909 21.9358 57.3908C22.036 57.2906 22.1362 57.0903 22.2363 56.9901C22.3365 56.7898 22.4366 56.5895 22.5368 56.3892C22.637 56.0887 22.7371 55.6881 22.7371 55.3876C22.7371 55.0871 22.7371 54.7866 22.637 54.4862C22.637 54.386 22.5368 54.2858 22.4366 54.1857C22.3365 54.0855 22.3365 53.9854 22.2363 53.8852C22.1362 53.7851 22.036 53.6849 21.9358 53.6849C21.8357 53.5847 21.6354 53.4846 21.4351 53.3844C21.3349 53.3844 21.2347 53.2843 21.1346 53.2843C21.0344 53.2843 20.9343 53.2843 20.8341 53.2843H20.7339C20.4335 53.2843 20.133 53.3844 19.8325 53.5847C19.4319 53.5847 19.2316 53.7851 19.1314 53.8852ZM20.133 56.9901C20.2332 56.9901 20.2332 56.9901 20.133 56.9901C20.2332 56.9901 20.2332 56.9901 20.133 56.9901ZM20.3333 56.9901H20.4335C20.4335 56.9901 20.4335 56.9901 20.3333 56.9901ZM20.4335 56.9901C20.4335 56.89 20.4335 56.89 20.4335 56.9901V56.9901ZM20.4335 56.89C20.4335 56.89 20.5336 56.89 20.4335 56.89C20.5336 56.89 20.5336 56.89 20.4335 56.89ZM21.0344 54.5863C21.0344 54.4862 21.0344 54.5863 21.0344 54.5863V54.5863ZM20.8341 54.386C20.7339 54.386 20.7339 54.386 20.8341 54.386V54.386ZM20.2332 54.386C20.3333 54.386 20.3333 54.386 20.4335 54.386C20.5336 54.386 20.6338 54.386 20.7339 54.386H20.8341L20.9343 54.4862L21.0344 54.5863C21.0344 54.6865 21.1346 54.6865 21.1346 54.7866C21.1346 54.8868 21.2347 54.987 21.2347 55.0871C21.2347 55.2874 21.2347 55.3876 21.2347 55.5879V55.6881C21.2347 55.8884 21.1346 55.9885 21.0344 56.0887C20.9343 56.1889 20.8341 56.3892 20.7339 56.4893L20.6338 56.5895C20.5336 56.6897 20.5336 56.6897 20.4335 56.7898C20.4335 56.7898 20.3333 56.7898 20.3333 56.89H20.2332H20.133C20.0328 56.89 20.0328 56.89 19.9327 56.7898L19.8325 56.6897C19.8325 56.6897 19.8325 56.6897 19.7324 56.5895C19.7324 56.5895 19.7324 56.4893 19.6322 56.4893C19.6322 56.3892 19.6322 56.3892 19.6322 56.289C19.6322 56.1889 19.6322 56.1889 19.6322 56.0887C19.6322 55.8884 19.6322 55.7882 19.7324 55.6881C19.7324 55.5879 19.8325 55.4878 19.8325 55.3876V55.2874C19.8325 55.2874 19.8325 55.2874 19.8325 55.3876C19.8325 55.3876 19.8325 55.2874 19.9327 55.2874C20.0328 55.1873 20.0328 54.987 20.0328 54.8868C20.0328 54.7866 19.9327 54.5863 19.8325 54.5863C19.8325 54.5863 19.8325 54.5863 19.7324 54.5863C19.7324 54.5863 19.8325 54.5863 19.8325 54.4862C20.0328 54.4862 20.133 54.4862 20.2332 54.386ZM6.01067 43.4688C5.91051 43.4688 5.91051 43.4688 6.01067 43.4688V43.4688Z" fill="black"/>
</svg>
